<svg xmlns="http://www.w3.org/2000/svg" width="850" height="600"><rect width="850" height="600" x="0" y="0" fill="#FFFFFF" id="background"/><g transform="translate(10,10)" id="visualization"><g><rect x="0" y="0" height="0.021547488778537627" width="1" fill="black"><title>Wąchock: 1298</title></rect><rect x="829" y="0" height="0.021547488778537627" width="1" fill="black"><title>1298: 1298</title></rect><rect x="0" y="47.02154748877854" height="0.042132146779579216" width="1" fill="black"><title>Szczebrzeszyn: 2538</title></rect><rect x="829" y="47.02154748877854" height="0.042132146779579216" width="1" fill="black"><title>2538: 2538</title></rect><rect x="0" y="94.06367963555812" height="1.7060199339595101" width="1" fill="black"><title>Rzeszów: 102769</title></rect><rect x="829" y="94.06367963555812" height="1.7060199339595101" width="1" fill="black"><title>102769: 102769</title></rect><rect x="0" y="142.76969956951763" height="2.1538524491968474" width="1" fill="black"><title>Gdynia: 129746</title></rect><rect x="829" y="142.76969956951763" height="2.1538524491968474" width="1" fill="black"><title>129746: 129746</title></rect><rect x="0" y="191.92355201871447" height="2.503808235745282" width="1" fill="black"><title>Katowice: 150827</title></rect><rect x="829" y="191.92355201871447" height="2.503808235745282" width="1" fill="black"><title>150827: 150827</title></rect><rect x="0" y="241.42736025445976" height="3.4574589197664523" width="1" fill="black"><title>Szczecin: 208274</title></rect><rect x="829" y="241.42736025445976" height="3.4574589197664523" width="1" fill="black"><title>208274: 208274</title></rect><rect x="0" y="291.8848191742262" height="16.638330054287962" width="1" fill="black"><title>Warsaw: 1002277</title></rect><rect x="829" y="291.8848191742262" height="16.638330054287962" width="1" fill="black"><title>1002277: 1002277</title></rect><rect x="0" y="355.52314922851417" height="28.984078293600817" width="1" fill="black"><title>Madrid: 1745973</title></rect><rect x="829" y="355.52314922851417" height="28.984078293600817" width="1" fill="black"><title>1745973: 1745973</title></rect><rect x="0" y="431.507227522115" height="34.57935354995999" width="1" fill="black"><title>Singapore: 2083027</title></rect><rect x="829" y="431.507227522115" height="34.57935354995999" width="1" fill="black"><title>2083027: 2083027</title></rect><rect x="414.5" y="188" height="55.50722752211493" width="1" fill="black"><title>Europe: 3343702</title></rect><rect x="0" y="513.086581072075" height="66.91341892792502" width="1" fill="black"><title>Hong Kong: 4030800</title></rect><rect x="829" y="513.086581072075" height="66.91341892792502" width="1" fill="black"><title>4030800: 4030800</title></rect><rect x="414.5" y="290.50722752211493" height="101.49277247788507" width="1" fill="black"><title>Asia: 6113827</title></rect></g><g fill="none" stroke-opacity="1"><g style="mix-blend-mode: multiply;"><path d="M1,370.01518837531455C207.75,370.01518837531455,207.75,229.01518837531452,414.5,229.01518837531452" stroke="#d62728" stroke-width="28.984078293600792"/><title>Madrid → Europe: 1745973</title></g><g style="mix-blend-mode: multiply;"><path d="M1,546.5432905360375C207.75,546.5432905360375,207.75,358.5432905360375,414.5,358.5432905360375" stroke="#ff7f0e" stroke-width="66.91341892792505"/><title>Hong Kong → Asia: 4030800</title></g><g style="mix-blend-mode: multiply;"><path d="M1,300.2039842013702C207.75,300.2039842013702,207.75,206.20398420137013,414.5,206.20398420137013" stroke="#bcbd22" stroke-width="16.638330054287966"/><title>Warsaw → Europe: 1002277</title></g><g style="mix-blend-mode: multiply;"><path d="M1,448.796904297095C207.75,448.796904297095,207.75,307.79690429709495,414.5,307.79690429709495" stroke="#8c564b" stroke-width="34.57935354996004"/><title>Singapore → Asia: 2083027</title></g><g style="mix-blend-mode: multiply;"><path d="M1,143.84662579411605C207.75,143.84662579411605,207.75,190.846625794116,414.5,190.846625794116" stroke="#1f77b4" stroke-width="2.153852449196825"/><title>Gdynia → Europe: 129746</title></g><g style="mix-blend-mode: multiply;"><path d="M1,243.15608971434298C207.75,243.15608971434298,207.75,196.15608971434293,414.5,196.15608971434293" stroke="#7f7f7f" stroke-width="3.4574589197664634"/><title>Szczecin → Europe: 208274</title></g><g style="mix-blend-mode: multiply;"><path d="M1,47.04261356216832C207.75,47.04261356216832,207.75,188.0426135621683,414.5,188.0426135621683" stroke="#e377c2" stroke-width="1"/><title>Szczebrzeszyn → Europe: 2538</title></g><g style="mix-blend-mode: multiply;"><path d="M1,0.010773744389258547C207.75,0.010773744389258547,207.75,188.01077374438927,414.5,188.01077374438927" stroke="#17becf" stroke-width="1"/><title>Wąchock → Europe: 1298</title></g><g style="mix-blend-mode: multiply;"><path d="M1,193.17545613658712C207.75,193.17545613658712,207.75,193.17545613658703,414.5,193.17545613658703" stroke="#2ca02c" stroke-width="2.503808235745299"/><title>Katowice → Europe: 150827</title></g><g style="mix-blend-mode: multiply;"><path d="M1,94.91668960253786C207.75,94.91668960253786,207.75,188.91668960253784,414.5,188.91668960253784" stroke="#9467bd" stroke-width="1.7060199339594941"/><title>Rzeszów → Europe: 102769</title></g><g style="mix-blend-mode: multiply;"><path d="M415.5,229.01518837531452C622.25,229.01518837531452,622.25,370.01518837531455,829,370.01518837531455" stroke="#cccccc" stroke-width="28.984078293600792"/><title>Europe → 1745973: 1745973</title></g><g style="mix-blend-mode: multiply;"><path d="M415.5,358.5432905360375C622.25,358.5432905360375,622.25,546.5432905360375,829,546.5432905360375" stroke="#cccccc" stroke-width="66.91341892792505"/><title>Asia → 4030800: 4030800</title></g><g style="mix-blend-mode: multiply;"><path d="M415.5,206.20398420137013C622.25,206.20398420137013,622.25,300.2039842013702,829,300.2039842013702" stroke="#cccccc" stroke-width="16.638330054287966"/><title>Europe → 1002277: 1002277</title></g><g style="mix-blend-mode: multiply;"><path d="M415.5,307.79690429709495C622.25,307.79690429709495,622.25,448.796904297095,829,448.796904297095" stroke="#cccccc" stroke-width="34.57935354996004"/><title>Asia → 2083027: 2083027</title></g><g style="mix-blend-mode: multiply;"><path d="M415.5,190.846625794116C622.25,190.846625794116,622.25,143.84662579411605,829,143.84662579411605" stroke="#cccccc" stroke-width="2.153852449196825"/><title>Europe → 129746: 129746</title></g><g style="mix-blend-mode: multiply;"><path d="M415.5,196.15608971434293C622.25,196.15608971434293,622.25,243.15608971434298,829,243.15608971434298" stroke="#cccccc" stroke-width="3.4574589197664634"/><title>Europe → 208274: 208274</title></g><g style="mix-blend-mode: multiply;"><path d="M415.5,188.0426135621683C622.25,188.0426135621683,622.25,47.04261356216832,829,47.04261356216832" stroke="#cccccc" stroke-width="1"/><title>Europe → 2538: 2538</title></g><g style="mix-blend-mode: multiply;"><path d="M415.5,188.01077374438927C622.25,188.01077374438927,622.25,0.010773744389258547,829,0.010773744389258547" stroke="#cccccc" stroke-width="1"/><title>Europe → 1298: 1298</title></g><g style="mix-blend-mode: multiply;"><path d="M415.5,193.17545613658703C622.25,193.17545613658703,622.25,193.17545613658712,829,193.17545613658712" stroke="#cccccc" stroke-width="2.503808235745299"/><title>Europe → 150827: 150827</title></g><g style="mix-blend-mode: multiply;"><path d="M415.5,188.91668960253784C622.25,188.91668960253784,622.25,94.91668960253786,829,94.91668960253786" stroke="#cccccc" stroke-width="1.7060199339594941"/><title>Europe → 102769: 102769</title></g></g><g><text x="5" y="0.010773744389268813" text-anchor="start"><tspan alignment-baseline="middle" x="5" style="font-family: Arial, sans-serif; font-size: 10px; fill: black; font-weight: bold;">Wąchock</tspan></text><text x="825" y="0.010773744389268813" text-anchor="end"><tspan alignment-baseline="middle" x="825" style="font-family: Arial, sans-serif; font-size: 10px; fill: black; font-weight: bold;">1298</tspan></text><text x="5" y="47.04261356216833" text-anchor="start"><tspan alignment-baseline="middle" x="5" style="font-family: Arial, sans-serif; font-size: 10px; fill: black; font-weight: bold;">Szczebrzeszyn</tspan></text><text x="825" y="47.04261356216833" text-anchor="end"><tspan alignment-baseline="middle" x="825" style="font-family: Arial, sans-serif; font-size: 10px; fill: black; font-weight: bold;">2538</tspan></text><text x="5" y="94.91668960253787" text-anchor="start"><tspan alignment-baseline="middle" x="5" style="font-family: Arial, sans-serif; font-size: 10px; fill: black; font-weight: bold;">Rzeszów</tspan></text><text x="825" y="94.91668960253787" text-anchor="end"><tspan alignment-baseline="middle" x="825" style="font-family: Arial, sans-serif; font-size: 10px; fill: black; font-weight: bold;">102769</tspan></text><text x="5" y="143.84662579411605" text-anchor="start"><tspan alignment-baseline="middle" x="5" style="font-family: Arial, sans-serif; font-size: 10px; fill: black; font-weight: bold;">Gdynia</tspan></text><text x="825" y="143.84662579411605" text-anchor="end"><tspan alignment-baseline="middle" x="825" style="font-family: Arial, sans-serif; font-size: 10px; fill: black; font-weight: bold;">129746</tspan></text><text x="5" y="193.17545613658712" text-anchor="start"><tspan alignment-baseline="middle" x="5" style="font-family: Arial, sans-serif; font-size: 10px; fill: black; font-weight: bold;">Katowice</tspan></text><text x="825" y="193.17545613658712" text-anchor="end"><tspan alignment-baseline="middle" x="825" style="font-family: Arial, sans-serif; font-size: 10px; fill: black; font-weight: bold;">150827</tspan></text><text x="5" y="243.15608971434298" text-anchor="start"><tspan alignment-baseline="middle" x="5" style="font-family: Arial, sans-serif; font-size: 10px; fill: black; font-weight: bold;">Szczecin</tspan></text><text x="825" y="243.15608971434298" text-anchor="end"><tspan alignment-baseline="middle" x="825" style="font-family: Arial, sans-serif; font-size: 10px; fill: black; font-weight: bold;">208274</tspan></text><text x="5" y="300.2039842013702" text-anchor="start"><tspan alignment-baseline="middle" x="5" style="font-family: Arial, sans-serif; font-size: 10px; fill: black; font-weight: bold;">Warsaw</tspan></text><text x="825" y="300.2039842013702" text-anchor="end"><tspan alignment-baseline="middle" x="825" style="font-family: Arial, sans-serif; font-size: 10px; fill: black; font-weight: bold;">1002277</tspan></text><text x="5" y="370.01518837531455" text-anchor="start"><tspan alignment-baseline="middle" x="5" style="font-family: Arial, sans-serif; font-size: 10px; fill: black; font-weight: bold;">Madrid</tspan></text><text x="825" y="370.01518837531455" text-anchor="end"><tspan alignment-baseline="middle" x="825" style="font-family: Arial, sans-serif; font-size: 10px; fill: black; font-weight: bold;">1745973</tspan></text><text x="5" y="448.796904297095" text-anchor="start"><tspan alignment-baseline="middle" x="5" style="font-family: Arial, sans-serif; font-size: 10px; fill: black; font-weight: bold;">Singapore</tspan></text><text x="825" y="448.796904297095" text-anchor="end"><tspan alignment-baseline="middle" x="825" style="font-family: Arial, sans-serif; font-size: 10px; fill: black; font-weight: bold;">2083027</tspan></text><text x="419.5" y="215.75361376105747" text-anchor="start"><tspan alignment-baseline="middle" x="419.5" style="font-family: Arial, sans-serif; font-size: 10px; fill: black; font-weight: bold;">Europe</tspan></text><text x="5" y="546.5432905360375" text-anchor="start"><tspan alignment-baseline="middle" x="5" style="font-family: Arial, sans-serif; font-size: 10px; fill: black; font-weight: bold;">Hong Kong</tspan></text><text x="825" y="546.5432905360375" text-anchor="end"><tspan alignment-baseline="middle" x="825" style="font-family: Arial, sans-serif; font-size: 10px; fill: black; font-weight: bold;">4030800</tspan></text><text x="419.5" y="341.25361376105747" text-anchor="start"><tspan alignment-baseline="middle" x="419.5" style="font-family: Arial, sans-serif; font-size: 10px; fill: black; font-weight: bold;">Asia</tspan></text></g><g><text x="0.5" y="-4" text-anchor="middle" style="font-family: Arial, sans-serif; font-size: 12px; fill: rgb(123, 123, 123); font-weight: bold;">cityLabel</text><text x="829.5" y="-4" text-anchor="middle" style="font-family: Arial, sans-serif; font-size: 12px; fill: rgb(123, 123, 123); font-weight: bold;">female_population</text><text x="415" y="184" text-anchor="middle" style="font-family: Arial, sans-serif; font-size: 12px; fill: rgb(123, 123, 123); font-weight: bold;">continentLabel</text></g></g></svg>