<svg xmlns="http://www.w3.org/2000/svg" width="805" height="600"><rect width="805" height="600" x="0" y="0" fill="#FFFFFF" id="background"/><g transform="translate(10,10)" id="viz"><g id="arcs"><path d="M22.706907385043888,290A41.30415363365751,41.30415363365751 0,0,1 105.31521465235892,290" fill="none" stroke="gray" stroke-width="12.994738017267043" opacity="0.5"/><path d="M582.9657950896328,290A48.83672895752699,48.83672895752699 0,0,1 680.6392530046868,290" fill="none" stroke="gray" stroke-width="30" opacity="0.5"/><path d="M22.706907385043888,290A77.92331695212148,77.92331695212148 0,0,1 178.55354128928684,290" fill="none" stroke="gray" stroke-width="7.45963828520393" opacity="0.5"/><path d="M582.9657950896328,290A91.84528018511878,91.84528018511878 0,0,1 766.6563554598704,290" fill="none" stroke="gray" stroke-width="15.503326883000891" opacity="0.5"/><path d="M22.706907385043888,290A109.10042897474827,109.10042897474827 0,0,1 240.90776533454041,290" fill="none" stroke="gray" stroke-width="0.9656594224471569" opacity="0.5"/><path d="M22.706907385043888,290A137.19305669174588,137.19305669174588 0,0,1 297.09302076853567,290" fill="none" stroke="gray" stroke-width="1.5501190830604346" opacity="0.5"/><path d="M22.706907385043888,290A163.53145359552286,163.53145359552286 0,0,1 349.76981457608963,290" fill="none" stroke="gray" stroke-width="0.018889550461446858" opacity="0.5"/><path d="M22.706907385043888,290A187.48986139527548,187.48986139527548 0,0,1 397.68663017559487,290" fill="none" stroke="gray" stroke-width="0.009660613277761238" opacity="0.5"/><path d="M22.706907385043888,290A213.36195269966973,213.36195269966973 0,0,1 449.43081278438336,290" fill="none" stroke="gray" stroke-width="1.1225587972610895" opacity="0.5"/><path d="M22.706907385043888,290A240.84516227585715,240.84516227585715 0,0,1 504.3972319367582,290" fill="none" stroke="gray" stroke-width="0.7648779398630545" opacity="0.5"/></g><g id="nodes"><g><circle cx="22.706907385043888" cy="290" r="22.706907385043888"/><text transform="translate(22.706907385043888,317.7069073850439) rotate(-90)" alignment-baseline="middle" font-family="Helvetica, Arial, sans-serif" font-size="12" text-anchor="end">Europe</text></g><g><circle cx="105.31521465235892" cy="290" r="16.96305320833259"/><text transform="translate(105.31521465235892,311.9630532083326) rotate(-90)" alignment-baseline="middle" font-family="Helvetica, Arial, sans-serif" font-size="12" text-anchor="end">Madrid</text></g><g><circle cx="178.55354128928684" cy="290" r="13.336926754656762"/><text transform="translate(178.55354128928684,308.33692675465676) rotate(-90)" alignment-baseline="middle" font-family="Helvetica, Arial, sans-serif" font-size="12" text-anchor="end">Warsaw</text></g><g><circle cx="240.90776533454041" cy="290" r="6.078950616658234"/><text transform="translate(240.90776533454041,301.07895061665823) rotate(-90)" alignment-baseline="middle" font-family="Helvetica, Arial, sans-serif" font-size="12" text-anchor="end">Gdynia</text></g><g><circle cx="297.09302076853567" cy="290" r="7.167958143398426"/><text transform="translate(297.09302076853567,302.16795814339844) rotate(-90)" alignment-baseline="middle" font-family="Helvetica, Arial, sans-serif" font-size="12" text-anchor="end">Szczecin</text></g><g><circle cx="349.76981457608963" cy="290" r="2.570488990216977"/><text transform="translate(349.76981457608963,297.570488990217) rotate(-90)" alignment-baseline="middle" font-family="Helvetica, Arial, sans-serif" font-size="12" text-anchor="end">Szczebrzeszyn</text></g><g><circle cx="397.68663017559487" cy="290" r="2.407979935349709"/><text transform="translate(397.68663017559487,297.4079799353497) rotate(-90)" alignment-baseline="middle" font-family="Helvetica, Arial, sans-serif" font-size="12" text-anchor="end">Wąchock</text></g><g><circle cx="449.43081278438336" cy="290" r="6.3978559995002495"/><text transform="translate(449.43081278438336,301.3978559995002) rotate(-90)" alignment-baseline="middle" font-family="Helvetica, Arial, sans-serif" font-size="12" text-anchor="end">Katowice</text></g><g><circle cx="504.3972319367582" cy="290" r="5.630216478936031"/><text transform="translate(504.3972319367582,300.630216478936) rotate(-90)" alignment-baseline="middle" font-family="Helvetica, Arial, sans-serif" font-size="12" text-anchor="end">Rzeszów</text></g><g><circle cx="582.9657950896328" cy="290" r="30"/><text transform="translate(582.9657950896328,325) rotate(-90)" alignment-baseline="middle" font-family="Helvetica, Arial, sans-serif" font-size="12" text-anchor="end">Asia</text></g><g><circle cx="680.6392530046868" cy="290" r="24.73511124111541"/><text transform="translate(680.6392530046868,319.7351112411154) rotate(-90)" alignment-baseline="middle" font-family="Helvetica, Arial, sans-serif" font-size="12" text-anchor="end">Hong Kong</text></g><g><circle cx="766.6563554598704" cy="290" r="18.343644540129596"/><text transform="translate(766.6563554598704,313.3436445401296) rotate(-90)" alignment-baseline="middle" font-family="Helvetica, Arial, sans-serif" font-size="12" text-anchor="end">Singapore</text></g></g></g></svg>