<svg xmlns="http://www.w3.org/2000/svg" width="805" height="600"><rect width="805" height="600" x="0" y="0" fill="#FFFFFF" id="background"/><g transform="translate(10,10)" id="viz"><g id="arcs"><path d="M16.944954447399564,290A24.140338552686003,24.140338552686003 0,0,1 65.22563155277157,290" fill="none" stroke="gray" stroke-width="12.994738017267043" opacity="0.5"/><path d="M532.4570674629474,290A28.004733283701228,28.004733283701228 0,0,1 588.4665340303499,290" fill="none" stroke="gray" stroke-width="30" opacity="0.5"/><path d="M671.9818659725323,290A14.911952862733642,14.911952862733642 0,0,1 701.8057716979996,290" fill="none" stroke="gray" stroke-width="8.702247692765704" opacity="0.5"/><path d="M109.88456823416935,290A22.329468340698888,22.329468340698888 0,0,1 65.22563155277157,290" fill="none" stroke="gray" stroke-width="7.45963828520393" opacity="0.5"/><path d="M638.0922647807124,290A24.812865375181275,24.812865375181275 0,0,1 588.4665340303499,290" fill="none" stroke="gray" stroke-width="15.503326883000891" opacity="0.5"/><path d="M130.61752178300716,290A32.695945115117794,32.695945115117794 0,0,1 65.22563155277157,290" fill="none" stroke="gray" stroke-width="0.9656594224471569" opacity="0.5"/><path d="M145.1889684789954,290A39.981668463111916,39.981668463111916 0,0,1 65.22563155277157,290" fill="none" stroke="gray" stroke-width="1.5501190830604346" opacity="0.5"/><path d="M156.25619725518007,290A45.51528285120425,45.51528285120425 0,0,1 65.22563155277157,290" fill="none" stroke="gray" stroke-width="0.018889550461446858" opacity="0.5"/><path d="M162.56920531855673,290A48.671786882892576,48.671786882892576 0,0,1 65.22563155277157,290" fill="none" stroke="gray" stroke-width="0.009660613277761238" opacity="0.5"/><path d="M172.70495094831224,290A53.739659697770335,53.739659697770335 0,0,1 65.22563155277157,290" fill="none" stroke="gray" stroke-width="1.1225587972610895" opacity="0.5"/><path d="M186.05903562238973,290A60.41670203480908,60.41670203480908 0,0,1 65.22563155277157,290" fill="none" stroke="gray" stroke-width="0.7648779398630545" opacity="0.5"/><path d="M199.490932173209,290A67.13265031021871,67.13265031021871 0,0,1 65.22563155277157,290" fill="none" stroke="gray" stroke-width="1.1626823459362905" opacity="0.5"/><path d="M211.62756550984204,290A73.20096697853523,73.20096697853523 0,0,1 65.22563155277157,290" fill="none" stroke="gray" stroke-width="0.3160092289371837" opacity="0.5"/><path d="M221.76108746377164,290A78.26772795550004,78.26772795550004 0,0,1 65.22563155277157,290" fill="none" stroke="gray" stroke-width="0.3541604644239357" opacity="0.5"/><path d="M231.11883901561615,290A82.94660373142229,82.94660373142229 0,0,1 65.22563155277157,290" fill="none" stroke="gray" stroke-width="0.14064453706460256" opacity="0.5"/><path d="M239.27373676566475,290A87.02405260644659,87.02405260644659 0,0,1 65.22563155277157,290" fill="none" stroke="gray" stroke-width="0.0930113128907413" opacity="0.5"/><path d="M246.77221440241829,290A90.77329142482336,90.77329142482336 0,0,1 65.22563155277157,290" fill="none" stroke="gray" stroke-width="0.04695593926763918" opacity="0.5"/><path d="M254.56619356293527,290A94.67028100508185,94.67028100508185 0,0,1 65.22563155277157,290" fill="none" stroke="gray" stroke-width="0.14156743078297113" opacity="0.5"/><path d="M271.957550809291,290A103.3659596282597,103.3659596282597 0,0,1 65.22563155277157,290" fill="none" stroke="gray" stroke-width="6.409221494492408" opacity="0.5"/><path d="M297.66404231043754,290A116.21920537883298,116.21920537883298 0,0,1 65.22563155277157,290" fill="none" stroke="gray" stroke-width="5.673541232509676" opacity="0.5"/><path d="M313.4324424366724,290A124.1034054419504,124.1034054419504 0,0,1 65.22563155277157,290" fill="none" stroke="gray" stroke-width="0.018093182494790114" opacity="0.5"/><path d="M735.3095219971692,290A11.580635281438049,11.580635281438049 0,0,1 758.4707925600453,290" fill="none" stroke="gray" stroke-width="4.621725215838047" opacity="0.5"/><path d="M321.79986934117215,290A128.2871188942003,128.2871188942003 0,0,1 65.22563155277157,290" fill="none" stroke="gray" stroke-width="0.3561178922298303" opacity="0.5"/><path d="M331.12082846491285,290A132.94759845607064,132.94759845607064 0,0,1 65.22563155277157,290" fill="none" stroke="gray" stroke-width="0.13286692467996428" opacity="0.5"/><path d="M341.5401459668937,290A138.15725720706106,138.15725720706106 0,0,1 65.22563155277157,290" fill="none" stroke="gray" stroke-width="0.742505209883894" opacity="0.5"/><path d="M353.6463814301089,290A144.21037493866865,144.21037493866865 0,0,1 65.22563155277157,290" fill="none" stroke="gray" stroke-width="0.5950654956832391" opacity="0.5"/><path d="M364.8262532879791,290A149.80031086760377,149.80031086760377 0,0,1 65.22563155277157,290" fill="none" stroke="gray" stroke-width="0.4073533789818398" opacity="0.5"/><path d="M375.45405701789554,290A155.11421273256198,155.11421273256198 0,0,1 65.22563155277157,290" fill="none" stroke="gray" stroke-width="0.4073533789818398" opacity="0.5"/><path d="M387.0538401414213,290A160.91410429432486,160.91410429432486 0,0,1 65.22563155277157,290" fill="none" stroke="gray" stroke-width="0.7615882703185471" opacity="0.5"/><path d="M399.6256026585563,290A167.19998555289237,167.19998555289237 0,0,1 65.22563155277157,290" fill="none" stroke="gray" stroke-width="0.7615882703185471" opacity="0.5"/><path d="M411.37350399620686,290A173.07393622171764,173.07393622171764 0,0,1 65.22563155277157,290" fill="none" stroke="gray" stroke-width="0.45423489133670736" opacity="0.5"/><path d="M422.29754415437293,290A178.53595630080068,178.53595630080068 0,0,1 65.22563155277157,290" fill="none" stroke="gray" stroke-width="0.45423489133670736" opacity="0.5"/><path d="M433.221584312539,290A183.9979763798837,183.9979763798837 0,0,1 65.22563155277157,290" fill="none" stroke="gray" stroke-width="0.45423489133670736" opacity="0.5"/><path d="M443.4384618185448,290A189.1064151328866,189.1064151328866 0,0,1 65.22563155277157,290" fill="none" stroke="gray" stroke-width="0.25340875260494194" opacity="0.5"/><path d="M452.1823140263315,290A193.47834123677995,193.47834123677995 0,0,1 65.22563155277157,290" fill="none" stroke="gray" stroke-width="0.10154807978565049" opacity="0.5"/><path d="M459.92189565842256,290A197.3481320528255,197.3481320528255 0,0,1 65.22563155277157,290" fill="none" stroke="gray" stroke-width="0.0682048228639476" opacity="0.5"/><path d="M467.423069360877,290A201.0987189040527,201.0987189040527 0,0,1 65.22563155277157,290" fill="none" stroke="gray" stroke-width="0.0682048228639476" opacity="0.5"/><path d="M474.3200400261181,290A204.54720423667325,204.54720423667325 0,0,1 65.22563155277157,290" fill="none" stroke="gray" stroke-width="0.013322417386126825" opacity="0.5"/><path d="M480.61280765414585,290A207.69358805068714,207.69358805068714 0,0,1 65.22563155277157,290" fill="none" stroke="gray" stroke-width="0.013322417386126825" opacity="0.5"/><path d="M488.22639317930395,290A211.5003808132662,211.5003808132662 0,0,1 65.22563155277157,290" fill="none" stroke="gray" stroke-width="0.18836707353378981" opacity="0.5"/><path d="M496.8590415071907,290A215.81670497720955,215.81670497720955 0,0,1 65.22563155277157,290" fill="none" stroke="gray" stroke-width="0.1304852634712712" opacity="0.5"/><path d="M773.955536213359,290A3.9041083718756795,3.9041083718756795 0,0,1 781.7637529571103,290" fill="none" stroke="gray" stroke-width="0.08891783268830009" opacity="0.5"/><path d="M504.0530412871749,290A219.41370486720166,219.41370486720166 0,0,1 65.22563155277157,290" fill="none" stroke="gray" stroke-width="0.007569217028877643" opacity="0.5"/><path d="M720.2303500714346,290A9.212289186717499,9.212289186717499 0,0,1 701.8057716979996,290" fill="none" stroke="gray" stroke-width="0.04014587674903245" opacity="0.5"/></g><g id="nodes"><g><circle cx="16.944954447399564" cy="290" r="16.944954447399564"/><text transform="translate(16.944954447399564,311.94495444739954) rotate(-90)" alignment-baseline="middle" font-family="Helvetica, Arial, sans-serif" font-size="12" text-anchor="end">Point(-3.703333333 40.416944444)</text></g><g><circle cx="65.22563155277157" cy="290" r="30"/><text transform="translate(65.22563155277157,325) rotate(-90)" alignment-baseline="middle" font-family="Helvetica, Arial, sans-serif" font-size="12" text-anchor="end">Europe</text></g><g><circle cx="109.88456823416935" cy="290" r="13.323214023425313"/><text transform="translate(109.88456823416935,308.3232140234253) rotate(-90)" alignment-baseline="middle" font-family="Helvetica, Arial, sans-serif" font-size="12" text-anchor="end">Point(21.011111111 52.23)</text></g><g><circle cx="130.61752178300716" cy="290" r="6.074016867440031"/><text transform="translate(130.61752178300716,301.07401686744004) rotate(-90)" alignment-baseline="middle" font-family="Helvetica, Arial, sans-serif" font-size="12" text-anchor="end">Point(18.54 54.5175)</text></g><g><circle cx="145.1889684789954" cy="290" r="7.161707170575769"/><text transform="translate(145.1889684789954,302.16170717057577) rotate(-90)" alignment-baseline="middle" font-family="Helvetica, Arial, sans-serif" font-size="12" text-anchor="end">Point(14.555277777 53.424722222)</text></g><g><circle cx="156.25619725518007" cy="290" r="2.569798947636422"/><text transform="translate(156.25619725518007,297.5697989476364) rotate(-90)" alignment-baseline="middle" font-family="Helvetica, Arial, sans-serif" font-size="12" text-anchor="end">Point(22.966666666 50.7)</text></g><g><circle cx="162.56920531855673" cy="290" r="2.407486457767791"/><text transform="translate(162.56920531855673,297.4074864577678) rotate(-90)" alignment-baseline="middle" font-family="Helvetica, Arial, sans-serif" font-size="12" text-anchor="end">Point(21.013611111 51.074166666)</text></g><g><circle cx="172.70495094831224" cy="290" r="6.392536514015262"/><text transform="translate(172.70495094831224,301.39253651401526) rotate(-90)" alignment-baseline="middle" font-family="Helvetica, Arial, sans-serif" font-size="12" text-anchor="end">Point(19.0 50.25)</text></g><g><circle cx="186.05903562238973" cy="290" r="5.6258255020897545"/><text transform="translate(186.05903562238973,300.62582550208975) rotate(-90)" alignment-baseline="middle" font-family="Helvetica, Arial, sans-serif" font-size="12" text-anchor="end">Point(22.0 50.05)</text></g><g><circle cx="199.490932173209" cy="290" r="6.470348390757027"/><text transform="translate(199.490932173209,301.470348390757) rotate(-90)" alignment-baseline="middle" font-family="Helvetica, Arial, sans-serif" font-size="12" text-anchor="end">Point(23.166666666 53.116666666)</text></g><g><circle cx="211.62756550984204" cy="290" r="4.330562287903562"/><text transform="translate(211.62756550984204,299.33056228790355) rotate(-90)" alignment-baseline="middle" font-family="Helvetica, Arial, sans-serif" font-size="12" text-anchor="end">Point(20.697222222 49.623888888)</text></g><g><circle cx="221.76108746377164" cy="290" r="4.467237008053588"/><text transform="translate(221.76108746377164,299.4672370080536) rotate(-90)" alignment-baseline="middle" font-family="Helvetica, Arial, sans-serif" font-size="12" text-anchor="end">Point(15.633333333 46.55)</text></g><g><circle cx="231.11883901561615" cy="290" r="3.5547918858184335"/><text transform="translate(231.11883901561615,298.5547918858184) rotate(-90)" alignment-baseline="middle" font-family="Helvetica, Arial, sans-serif" font-size="12" text-anchor="end">Point(15.264128741 46.22909194)</text></g><g><circle cx="239.27373676566475" cy="290" r="3.2643832062577167"/><text transform="translate(239.27373676566475,298.2643832062577) rotate(-90)" alignment-baseline="middle" font-family="Helvetica, Arial, sans-serif" font-size="12" text-anchor="end">Point(13.7306571 45.547542728)</text></g><g><circle cx="246.77221440241829" cy="290" r="2.8983717725233635"/><text transform="translate(246.77221440241829,297.8983717725234) rotate(-90)" alignment-baseline="middle" font-family="Helvetica, Arial, sans-serif" font-size="12" text-anchor="end">Point(13.65 45.966666666)</text></g><g><circle cx="254.56619356293527" cy="290" r="3.5598847300211585"/><text transform="translate(254.56619356293527,298.55988473002117) rotate(-90)" alignment-baseline="middle" font-family="Helvetica, Arial, sans-serif" font-size="12" text-anchor="end">Point(14.35561 46.23887)</text></g><g><circle cx="271.957550809291" cy="290" r="12.495749858362123"/><text transform="translate(271.957550809291,307.4957498583621) rotate(-90)" alignment-baseline="middle" font-family="Helvetica, Arial, sans-serif" font-size="12" text-anchor="end">Point(2.176944444 41.3825)</text></g><g><circle cx="297.66404231043754" cy="290" r="11.875018984811971"/><text transform="translate(297.66404231043754,306.87501898481196) rotate(-90)" alignment-baseline="middle" font-family="Helvetica, Arial, sans-serif" font-size="12" text-anchor="end">Point(11.575 48.1375)</text></g><g><circle cx="313.4324424366724" cy="290" r="2.557658483450397"/><text transform="translate(313.4324424366724,297.5576584834504) rotate(-90)" alignment-baseline="middle" font-family="Helvetica, Arial, sans-serif" font-size="12" text-anchor="end">Point(14.611388888 53.841388888)</text></g><g><circle cx="321.79986934117215" cy="290" r="4.474045763076875"/><text transform="translate(321.79986934117215,299.4740457630769) rotate(-90)" alignment-baseline="middle" font-family="Helvetica, Arial, sans-serif" font-size="12" text-anchor="end">Point(2.392777777 48.7875)</text></g><g><circle cx="331.12082846491285" cy="290" r="3.5111907026914118"/><text transform="translate(331.12082846491285,298.5111907026914) rotate(-90)" alignment-baseline="middle" font-family="Helvetica, Arial, sans-serif" font-size="12" text-anchor="end">Point(18.54782 54.44185)</text></g><g><circle cx="341.5401459668937" cy="290" r="5.572404141316981"/><text transform="translate(341.5401459668937,300.572404141317) rotate(-90)" alignment-baseline="middle" font-family="Helvetica, Arial, sans-serif" font-size="12" text-anchor="end">Point(20.631944444 50.8725)</text></g><g><circle cx="353.6463814301089" cy="290" r="5.1981086639258"/><text transform="translate(353.6463814301089,300.1981086639258) rotate(-90)" alignment-baseline="middle" font-family="Helvetica, Arial, sans-serif" font-size="12" text-anchor="end">Point(18.923 50.347)</text></g><g><circle cx="364.8262532879791" cy="290" r="4.646040535971987"/><text transform="translate(364.8262532879791,299.64604053597196) rotate(-90)" alignment-baseline="middle" font-family="Helvetica, Arial, sans-serif" font-size="12" text-anchor="end">Point(18.9628 50.2884)</text></g><g><circle cx="375.45405701789554" cy="290" r="4.646040535971987"/><text transform="translate(375.45405701789554,299.64604053597196) rotate(-90)" alignment-baseline="middle" font-family="Helvetica, Arial, sans-serif" font-size="12" text-anchor="end">Point(18.95 50.3)</text></g><g><circle cx="387.0538401414213" cy="290" r="5.618019929581275"/><text transform="translate(387.0538401414213,300.6180199295813) rotate(-90)" alignment-baseline="middle" font-family="Helvetica, Arial, sans-serif" font-size="12" text-anchor="end">Point(19.166666666 50.3)</text></g><g><circle cx="399.6256026585563" cy="290" r="5.618019929581275"/><text transform="translate(399.6256026585563,300.6180199295813) rotate(-90)" alignment-baseline="middle" font-family="Helvetica, Arial, sans-serif" font-size="12" text-anchor="end">Point(19.1946 50.2711)</text></g><g><circle cx="411.37350399620686" cy="290" r="4.794158750096804"/><text transform="translate(411.37350399620686,299.7941587500968) rotate(-90)" alignment-baseline="middle" font-family="Helvetica, Arial, sans-serif" font-size="12" text-anchor="end">Point(19.194722222 50.323888888)</text></g><g><circle cx="422.29754415437293" cy="290" r="4.794158750096804"/><text transform="translate(422.29754415437293,299.7941587500968) rotate(-90)" alignment-baseline="middle" font-family="Helvetica, Arial, sans-serif" font-size="12" text-anchor="end">Point(19.2374 50.31818)</text></g><g><circle cx="433.221584312539" cy="290" r="4.794158750096804"/><text transform="translate(433.221584312539,299.7941587500968) rotate(-90)" alignment-baseline="middle" font-family="Helvetica, Arial, sans-serif" font-size="12" text-anchor="end">Point(19.3213 50.371)</text></g><g><circle cx="443.4384618185448" cy="290" r="4.086996097936548"/><text transform="translate(443.4384618185448,299.08699609793655) rotate(-90)" alignment-baseline="middle" font-family="Helvetica, Arial, sans-serif" font-size="12" text-anchor="end">Point(18.985833333 50.275833333)</text></g><g><circle cx="452.1823140263315" cy="290" r="3.321133451877674"/><text transform="translate(452.1823140263315,298.3211334518777) rotate(-90)" alignment-baseline="middle" font-family="Helvetica, Arial, sans-serif" font-size="12" text-anchor="end">Point(21.4584 52.59278)</text></g><g><circle cx="459.92189565842256" cy="290" r="3.0827255222409837"/><text transform="translate(459.92189565842256,298.082725522241) rotate(-90)" alignment-baseline="middle" font-family="Helvetica, Arial, sans-serif" font-size="12" text-anchor="end">Point(21.116666666 52.083333333)</text></g><g><circle cx="467.423069360877" cy="290" r="3.0827255222409837"/><text transform="translate(467.423069360877,298.082725522241) rotate(-90)" alignment-baseline="middle" font-family="Helvetica, Arial, sans-serif" font-size="12" text-anchor="end">Point(21.11761 52.0938)</text></g><g><circle cx="474.3200400261181" cy="290" r="2.4785224850276646"/><text transform="translate(474.3200400261181,297.47852248502767) rotate(-90)" alignment-baseline="middle" font-family="Helvetica, Arial, sans-serif" font-size="12" text-anchor="end">Point(18.766666666 49.916666666)</text></g><g><circle cx="480.61280765414585" cy="290" r="2.4785224850276646"/><text transform="translate(480.61280765414585,297.47852248502767) rotate(-90)" alignment-baseline="middle" font-family="Helvetica, Arial, sans-serif" font-size="12" text-anchor="end">Point(18.76637 49.92103)</text></g><g><circle cx="488.22639317930395" cy="290" r="3.7993403821580074"/><text transform="translate(488.22639317930395,298.799340382158) rotate(-90)" alignment-baseline="middle" font-family="Helvetica, Arial, sans-serif" font-size="12" text-anchor="end">Point(20.459166666 45.824444444)</text></g><g><circle cx="496.8590415071907" cy="290" r="3.4975852877562428"/><text transform="translate(496.8590415071907,298.49758528775624) rotate(-90)" alignment-baseline="middle" font-family="Helvetica, Arial, sans-serif" font-size="12" text-anchor="end">Point(-3.371666666 38.011666666)</text></g><g><circle cx="504.0530412871749" cy="290" r="2.3606918342555563"/><text transform="translate(504.0530412871749,297.36069183425553) rotate(-90)" alignment-baseline="middle" font-family="Helvetica, Arial, sans-serif" font-size="12" text-anchor="end">Point(20.47259 52.68715)</text></g><g><circle cx="532.4570674629474" cy="290" r="24.707611683544528"/><text transform="translate(532.4570674629474,319.70761168354454) rotate(-90)" alignment-baseline="middle" font-family="Helvetica, Arial, sans-serif" font-size="12" text-anchor="end">Point(114.158611111 22.278333333)</text></g><g><circle cx="588.4665340303499" cy="290" r="29.96613222588539"/><text transform="translate(588.4665340303499,324.9661322258854) rotate(-90)" alignment-baseline="middle" font-family="Helvetica, Arial, sans-serif" font-size="12" text-anchor="end">Asia</text></g><g><circle cx="638.0922647807124" cy="290" r="18.323875866504785"/><text transform="translate(638.0922647807124,313.3238758665048) rotate(-90)" alignment-baseline="middle" font-family="Helvetica, Arial, sans-serif" font-size="12" text-anchor="end">Point(103.8 1.3)</text></g><g><circle cx="671.9818659725323" cy="290" r="14.230002667342667"/><text transform="translate(671.9818659725323,309.23000266734266) rotate(-90)" alignment-baseline="middle" font-family="Helvetica, Arial, sans-serif" font-size="12" text-anchor="end">Point(-0.853333333 9.4075)</text></g><g><circle cx="701.8057716979996" cy="290" r="14.258180400152167"/><text transform="translate(701.8057716979996,309.2581804001522) rotate(-90)" alignment-baseline="middle" font-family="Helvetica, Arial, sans-serif" font-size="12" text-anchor="end">Africa</text></g><g><circle cx="720.2303500714346" cy="290" r="2.830675315310339"/><text transform="translate(720.2303500714346,297.8306753153103) rotate(-90)" alignment-baseline="middle" font-family="Helvetica, Arial, sans-serif" font-size="12" text-anchor="end">Point(29.4165 -23.8914)</text></g><g><circle cx="735.3095219971692" cy="290" r="10.91277395245184"/><text transform="translate(735.3095219971692,305.91277395245186) rotate(-90)" alignment-baseline="middle" font-family="Helvetica, Arial, sans-serif" font-size="12" text-anchor="end">Point(-114.066666666 51.05)</text></g><g><circle cx="758.4707925600453" cy="290" r="10.91277395245184"/><text transform="translate(758.4707925600453,305.91277395245186) rotate(-90)" alignment-baseline="middle" font-family="Helvetica, Arial, sans-serif" font-size="12" text-anchor="end">North America</text></g><g><circle cx="773.955536213359" cy="290" r="3.236247042889456"/><text transform="translate(773.955536213359,298.23624704288943) rotate(-90)" alignment-baseline="middle" font-family="Helvetica, Arial, sans-serif" font-size="12" text-anchor="end">Point(-60.810711111 -32.917013888)</text></g><g><circle cx="781.7637529571103" cy="290" r="3.236247042889456"/><text transform="translate(781.7637529571103,298.23624704288943) rotate(-90)" alignment-baseline="middle" font-family="Helvetica, Arial, sans-serif" font-size="12" text-anchor="end">South America</text></g></g></g></svg>