<svg xmlns="http://www.w3.org/2000/svg" width="805" height="600"><rect width="805" height="600" x="0" y="0" fill="#FFFFFF" id="background"/><g transform="translate(10,10)" id="viz"><g id="arcs"><path d="M9.76580274715321,290A2.059143591675423,2.059143591675423 0,0,1 13.884089930504055,290" fill="none" stroke="gray" stroke-width="30" opacity="0.5"/><path d="M18.0023771138549,290A2.059143591675424,2.059143591675424 0,0,1 22.12066429720575,290" fill="none" stroke="gray" stroke-width="30" opacity="0.5"/><path d="M26.238951480556594,290A2.059143591675422,2.059143591675422 0,0,1 30.357238663907438,290" fill="none" stroke="gray" stroke-width="30" opacity="0.5"/><path d="M34.47552584725828,290A2.059143591675422,2.059143591675422 0,0,1 38.59381303060913,290" fill="none" stroke="gray" stroke-width="30" opacity="0.5"/><path d="M42.71210021395997,290A2.059143591675422,2.059143591675422 0,0,1 46.830387397310815,290" fill="none" stroke="gray" stroke-width="30" opacity="0.5"/><path d="M50.94867458066166,290A2.059143591675422,2.059143591675422 0,0,1 55.066961764012504,290" fill="none" stroke="gray" stroke-width="30" opacity="0.5"/><path d="M79.41944620021013,290A12.176242218098821,12.176242218098821 0,0,1 103.77193063640777,290" fill="none" stroke="gray" stroke-width="30" opacity="0.5"/><path d="M79.41944620021013,290A14.235385809774243,14.235385809774243 0,0,1 107.89021781975862,290" fill="none" stroke="gray" stroke-width="30" opacity="0.5"/><path d="M79.41944620021013,290A16.294529401449665,16.294529401449665 0,0,1 112.00850500310946,290" fill="none" stroke="gray" stroke-width="30" opacity="0.5"/><path d="M157.30966401996875,290A2.059143591675422,2.059143591675422 0,0,1 161.4279512033196,290" fill="none" stroke="gray" stroke-width="30" opacity="0.5"/><path d="M165.54623838667044,290A2.059143591675422,2.059143591675422 0,0,1 169.66452557002128,290" fill="none" stroke="gray" stroke-width="30" opacity="0.5"/><path d="M173.78281275337213,290A2.059143591675422,2.059143591675422 0,0,1 177.90109993672297,290" fill="none" stroke="gray" stroke-width="30" opacity="0.5"/><path d="M182.01938712007382,290A2.059143591675422,2.059143591675422 0,0,1 186.13767430342466,290" fill="none" stroke="gray" stroke-width="30" opacity="0.5"/><path d="M190.2559614867755,290A2.059143591675422,2.059143591675422 0,0,1 194.37424867012635,290" fill="none" stroke="gray" stroke-width="30" opacity="0.5"/><path d="M198.4925358534772,290A2.059143591675422,2.059143591675422 0,0,1 202.61082303682804,290" fill="none" stroke="gray" stroke-width="30" opacity="0.5"/><path d="M79.41944620021013,290A18.353672993125087,18.353672993125087 0,0,1 116.1267921864603,290" fill="none" stroke="gray" stroke-width="30" opacity="0.5"/><path d="M206.72911022017888,290A2.059143591675422,2.059143591675422 0,0,1 210.84739740352973,290" fill="none" stroke="gray" stroke-width="30" opacity="0.5"/><path d="M214.96568458688057,290A2.059143591675422,2.059143591675422 0,0,1 219.08397177023141,290" fill="none" stroke="gray" stroke-width="30" opacity="0.5"/><path d="M232.80131904891823,290A6.858673639343408,6.858673639343408 0,0,1 246.51866632760505,290" fill="none" stroke="gray" stroke-width="30" opacity="0.5"/><path d="M267.11010224435927,290A2.059143591675422,2.059143591675422 0,0,1 271.2283894277101,290" fill="none" stroke="gray" stroke-width="30" opacity="0.5"/><path d="M79.41944620021013,290A20.41281658480051,20.41281658480051 0,0,1 120.24507936981115,290" fill="none" stroke="gray" stroke-width="30" opacity="0.5"/><path d="M281.0316387835351,290A4.90162467791248,4.90162467791248 0,0,1 290.83488813936003,290" fill="none" stroke="gray" stroke-width="30" opacity="0.5"/><path d="M303.18974968941257,290A2.059143591675422,2.059143591675422 0,0,1 307.3080368727634,290" fill="none" stroke="gray" stroke-width="30" opacity="0.5"/><path d="M311.42632405611425,290A2.059143591675422,2.059143591675422 0,0,1 315.5446112394651,290" fill="none" stroke="gray" stroke-width="30" opacity="0.5"/><path d="M322.87959924340106,290A3.6674940019679525,3.6674940019679525 0,0,1 330.21458724733696,290" fill="none" stroke="gray" stroke-width="30" opacity="0.5"/><path d="M338.45116161403865,290A2.059143591675422,2.059143591675422 0,0,1 342.5694487973895,290" fill="none" stroke="gray" stroke-width="30" opacity="0.5"/><path d="M346.68773598074034,290A2.059143591675422,2.059143591675422 0,0,1 350.8060231640912,290" fill="none" stroke="gray" stroke-width="30" opacity="0.5"/><path d="M354.92431034744203,290A2.059143591675422,2.059143591675422 0,0,1 359.0425975307929,290" fill="none" stroke="gray" stroke-width="30" opacity="0.5"/><path d="M363.1608847141437,290A2.059143591675422,2.059143591675422 0,0,1 367.27917189749456,290" fill="none" stroke="gray" stroke-width="30" opacity="0.5"/><path d="M374.6141599014305,290A3.6674940019679525,3.6674940019679525 0,0,1 381.94914790536643,290" fill="none" stroke="gray" stroke-width="30" opacity="0.5"/><path d="M390.1857222720681,290A2.059143591675422,2.059143591675422 0,0,1 394.30400945541896,290" fill="none" stroke="gray" stroke-width="30" opacity="0.5"/><path d="M398.4222966387698,290A2.059143591675422,2.059143591675422 0,0,1 402.54058382212065,290" fill="none" stroke="gray" stroke-width="30" opacity="0.5"/><path d="M281.0316387835351,290A6.960768269587902,6.960768269587902 0,0,1 294.9531753227109,290" fill="none" stroke="gray" stroke-width="30" opacity="0.5"/><path d="M409.8755718260566,290A3.6674940019679525,3.6674940019679525 0,0,1 417.2105598299925,290" fill="none" stroke="gray" stroke-width="30" opacity="0.5"/><path d="M232.80131904891823,290A8.91781723101883,8.91781723101883 0,0,1 250.6369535109559,290" fill="none" stroke="gray" stroke-width="30" opacity="0.5"/><path d="M425.4471341966942,290A2.059143591675422,2.059143591675422 0,0,1 429.56542138004505,290" fill="none" stroke="gray" stroke-width="30" opacity="0.5"/><path d="M433.6837085633959,290A2.059143591675422,2.059143591675422 0,0,1 437.80199574674674,290" fill="none" stroke="gray" stroke-width="30" opacity="0.5"/><path d="M445.1369837506827,290A3.6674940019679525,3.6674940019679525 0,0,1 452.4719717546186,290" fill="none" stroke="gray" stroke-width="30" opacity="0.5"/><path d="M79.41944620021013,290A22.471960176475932,22.471960176475932 0,0,1 124.363366553162,290" fill="none" stroke="gray" stroke-width="30" opacity="0.5"/><path d="M456.59025893796945,290A2.059143591675422,2.059143591675422 0,0,1 460.7085461213203,290" fill="none" stroke="gray" stroke-width="30" opacity="0.5"/><path d="M464.82683330467114,290A2.059143591675422,2.059143591675422 0,0,1 468.945120488022,290" fill="none" stroke="gray" stroke-width="30" opacity="0.5"/><path d="M473.06340767137283,290A2.059143591675422,2.059143591675422 0,0,1 477.1816948547237,290" fill="none" stroke="gray" stroke-width="30" opacity="0.5"/><path d="M481.2999820380745,290A2.059143591675422,2.059143591675422 0,0,1 485.41826922142536,290" fill="none" stroke="gray" stroke-width="30" opacity="0.5"/><path d="M79.41944620021013,290A24.531103768151354,24.531103768151354 0,0,1 128.48165373651284,290" fill="none" stroke="gray" stroke-width="30" opacity="0.5"/><path d="M492.7532572253613,290A3.6674940019679525,3.6674940019679525 0,0,1 500.08824522929723,290" fill="none" stroke="gray" stroke-width="30" opacity="0.5"/><path d="M79.41944620021013,290A26.590247359826776,26.590247359826776 0,0,1 132.59994091986368,290" fill="none" stroke="gray" stroke-width="30" opacity="0.5"/><path d="M281.0316387835351,290A9.019911861263324,9.019911861263324 0,0,1 299.0714625060617,290" fill="none" stroke="gray" stroke-width="30" opacity="0.5"/><path d="M508.3248195959989,290A2.0591435916754506,2.0591435916754506 0,0,1 512.4431067793498,290" fill="none" stroke="gray" stroke-width="30" opacity="0.5"/><path d="M519.7780947832857,290A3.6674940019679525,3.6674940019679525 0,0,1 527.1130827872216,290" fill="none" stroke="gray" stroke-width="30" opacity="0.5"/><path d="M535.3496571539233,290A2.059143591675422,2.059143591675422 0,0,1 539.4679443372742,290" fill="none" stroke="gray" stroke-width="30" opacity="0.5"/><path d="M232.80131904891823,290A10.976960822694252,10.976960822694252 0,0,1 254.75524069430674,290" fill="none" stroke="gray" stroke-width="30" opacity="0.5"/><path d="M543.586231520625,290A2.059143591675422,2.059143591675422 0,0,1 547.7045187039759,290" fill="none" stroke="gray" stroke-width="30" opacity="0.5"/><path d="M232.80131904891823,290A13.036104414369674,13.036104414369674 0,0,1 258.8735278776576,290" fill="none" stroke="gray" stroke-width="30" opacity="0.5"/><path d="M322.87959924340106,290A5.726637593643375,5.726637593643375 0,0,1 334.3328744306878,290" fill="none" stroke="gray" stroke-width="30" opacity="0.5"/><path d="M551.8228058873267,290A2.059143591675422,2.059143591675422 0,0,1 555.9410930706775,290" fill="none" stroke="gray" stroke-width="30" opacity="0.5"/><path d="M560.0593802540284,290A2.059143591675422,2.059143591675422 0,0,1 564.1776674373792,290" fill="none" stroke="gray" stroke-width="30" opacity="0.5"/><path d="M568.2959546207301,290A2.059143591675422,2.059143591675422 0,0,1 572.4142418040809,290" fill="none" stroke="gray" stroke-width="30" opacity="0.5"/><path d="M374.6141599014305,290A5.726637593643375,5.726637593643375 0,0,1 386.0674350887173,290" fill="none" stroke="gray" stroke-width="30" opacity="0.5"/><path d="M576.5325289874318,290A2.059143591675422,2.059143591675422 0,0,1 580.6508161707826,290" fill="none" stroke="gray" stroke-width="30" opacity="0.5"/><path d="M584.7691033541334,290A2.059143591675422,2.059143591675422 0,0,1 588.8873905374843,290" fill="none" stroke="gray" stroke-width="30" opacity="0.5"/><path d="M593.0056777208351,290A2.059143591675422,2.059143591675422 0,0,1 597.123964904186,290" fill="none" stroke="gray" stroke-width="30" opacity="0.5"/><path d="M232.80131904891823,290A15.095248006045097,15.095248006045097 0,0,1 262.9918150610084,290" fill="none" stroke="gray" stroke-width="30" opacity="0.5"/><path d="M601.2422520875368,290A2.059143591675422,2.059143591675422 0,0,1 605.3605392708877,290" fill="none" stroke="gray" stroke-width="30" opacity="0.5"/><path d="M609.4788264542385,290A2.059143591675422,2.059143591675422 0,0,1 613.5971136375894,290" fill="none" stroke="gray" stroke-width="30" opacity="0.5"/><path d="M617.7154008209402,290A2.059143591675422,2.059143591675422 0,0,1 621.833688004291,290" fill="none" stroke="gray" stroke-width="30" opacity="0.5"/><path d="M625.9519751876419,290A2.059143591675422,2.059143591675422 0,0,1 630.0702623709927,290" fill="none" stroke="gray" stroke-width="30" opacity="0.5"/><path d="M637.4052503749286,290A3.6674940019680093,3.6674940019680093 0,0,1 644.7402383788647,290" fill="none" stroke="gray" stroke-width="30" opacity="0.5"/><path d="M656.1935135661514,290A3.6674940019680093,3.6674940019680093 0,0,1 663.5285015700874,290" fill="none" stroke="gray" stroke-width="30" opacity="0.5"/><path d="M671.7650759367891,290A2.059143591675422,2.059143591675422 0,0,1 675.88336312014,290" fill="none" stroke="gray" stroke-width="30" opacity="0.5"/><path d="M680.0016503034908,290A2.059143591675422,2.059143591675422 0,0,1 684.1199374868416,290" fill="none" stroke="gray" stroke-width="30" opacity="0.5"/><path d="M688.2382246701925,290A2.059143591675422,2.059143591675422 0,0,1 692.3565118535433,290" fill="none" stroke="gray" stroke-width="30" opacity="0.5"/><path d="M656.1935135661514,290A5.7266375936434315,5.7266375936434315 0,0,1 667.6467887534383,290" fill="none" stroke="gray" stroke-width="30" opacity="0.5"/><path d="M79.41944620021013,290A28.6493909515022,28.6493909515022 0,0,1 136.71822810321453,290" fill="none" stroke="gray" stroke-width="30" opacity="0.5"/><path d="M699.6914998574792,290A3.6674940019680093,3.6674940019680093 0,0,1 707.0264878614153,290" fill="none" stroke="gray" stroke-width="30" opacity="0.5"/><path d="M715.263062228117,290A2.059143591675422,2.059143591675422 0,0,1 719.3813494114678,290" fill="none" stroke="gray" stroke-width="30" opacity="0.5"/><path d="M79.41944620021013,290A30.70853454317762,30.70853454317762 0,0,1 140.83651528656537,290" fill="none" stroke="gray" stroke-width="30" opacity="0.5"/><path d="M79.41944620021013,290A32.76767813485304,32.76767813485304 0,0,1 144.95480246991622,290" fill="none" stroke="gray" stroke-width="30" opacity="0.5"/><path d="M637.4052503749286,290A5.7266375936434315,5.7266375936434315 0,0,1 648.8585255622155,290" fill="none" stroke="gray" stroke-width="30" opacity="0.5"/><path d="M409.8755718260566,290A5.726637593643375,5.726637593643375 0,0,1 421.32884701334336,290" fill="none" stroke="gray" stroke-width="30" opacity="0.5"/><path d="M723.4996365948186,290A2.059143591675422,2.059143591675422 0,0,1 727.6179237781695,290" fill="none" stroke="gray" stroke-width="30" opacity="0.5"/><path d="M699.6914998574792,290A5.7266375936434315,5.7266375936434315 0,0,1 711.1447750447661,290" fill="none" stroke="gray" stroke-width="30" opacity="0.5"/><path d="M731.7362109615203,290A2.059143591675422,2.059143591675422 0,0,1 735.8544981448712,290" fill="none" stroke="gray" stroke-width="30" opacity="0.5"/><path d="M739.972785328222,290A2.059143591675422,2.059143591675422 0,0,1 744.0910725115729,290" fill="none" stroke="gray" stroke-width="30" opacity="0.5"/><path d="M79.41944620021013,290A34.826821726528465,34.826821726528465 0,0,1 149.07308965326706,290" fill="none" stroke="gray" stroke-width="30" opacity="0.5"/><path d="M79.41944620021013,290A36.88596531820389,36.88596531820389 0,0,1 153.1913768366179,290" fill="none" stroke="gray" stroke-width="30" opacity="0.5"/><path d="M492.7532572253613,290A5.726637593643375,5.726637593643375 0,0,1 504.2065324126481,290" fill="none" stroke="gray" stroke-width="30" opacity="0.5"/><path d="M445.1369837506827,290A153.14453838241303,153.14453838241303 0,0,1 751.4260605155088,290" fill="none" stroke="gray" stroke-width="30" opacity="0.5"/><path d="M758.7610485194448,290A3.6674940019680093,3.6674940019680093 0,0,1 751.4260605155088,290" fill="none" stroke="gray" stroke-width="30" opacity="0.5"/><path d="M519.7780947832857,290A5.726637593643375,5.726637593643375 0,0,1 531.2313699705725,290" fill="none" stroke="gray" stroke-width="30" opacity="0.5"/><path d="M762.8793357027956,290A2.059143591675422,2.059143591675422 0,0,1 766.9976228861465,290" fill="none" stroke="gray" stroke-width="30" opacity="0.5"/><path d="M771.1159100694973,290A2.059143591675422,2.059143591675422 0,0,1 775.2341972528482,290" fill="none" stroke="gray" stroke-width="30" opacity="0.5"/></g><g id="nodes"><g><circle cx="9.76580274715321" cy="290" r="9.76580274715321"/><text transform="translate(9.76580274715321,304.7658027471532) rotate(-90)" alignment-baseline="middle" font-family="Helvetica, Arial, sans-serif" font-size="12" text-anchor="end">Le Cateau-Cambrésis</text></g><g><circle cx="13.884089930504055" cy="290" r="9.76580274715321"/><text transform="translate(13.884089930504055,304.7658027471532) rotate(-90)" alignment-baseline="middle" font-family="Helvetica, Arial, sans-serif" font-size="12" text-anchor="end">Henri Matisse</text></g><g><circle cx="18.0023771138549" cy="290" r="9.76580274715321"/><text transform="translate(18.0023771138549,304.7658027471532) rotate(-90)" alignment-baseline="middle" font-family="Helvetica, Arial, sans-serif" font-size="12" text-anchor="end">Blainville-Crevon</text></g><g><circle cx="22.12066429720575" cy="290" r="9.76580274715321"/><text transform="translate(22.12066429720575,304.7658027471532) rotate(-90)" alignment-baseline="middle" font-family="Helvetica, Arial, sans-serif" font-size="12" text-anchor="end">Marcel Duchamp</text></g><g><circle cx="26.238951480556594" cy="290" r="9.76580274715321"/><text transform="translate(26.238951480556594,304.7658027471532) rotate(-90)" alignment-baseline="middle" font-family="Helvetica, Arial, sans-serif" font-size="12" text-anchor="end">Ville-d'Avray</text></g><g><circle cx="30.357238663907438" cy="290" r="9.76580274715321"/><text transform="translate(30.357238663907438,304.7658027471532) rotate(-90)" alignment-baseline="middle" font-family="Helvetica, Arial, sans-serif" font-size="12" text-anchor="end">Boris Vian</text></g><g><circle cx="34.47552584725828" cy="290" r="9.76580274715321"/><text transform="translate(34.47552584725828,304.7658027471532) rotate(-90)" alignment-baseline="middle" font-family="Helvetica, Arial, sans-serif" font-size="12" text-anchor="end">Lessines</text></g><g><circle cx="38.59381303060913" cy="290" r="9.76580274715321"/><text transform="translate(38.59381303060913,304.7658027471532) rotate(-90)" alignment-baseline="middle" font-family="Helvetica, Arial, sans-serif" font-size="12" text-anchor="end">René Magritte</text></g><g><circle cx="42.71210021395997" cy="290" r="9.76580274715321"/><text transform="translate(42.71210021395997,304.7658027471532) rotate(-90)" alignment-baseline="middle" font-family="Helvetica, Arial, sans-serif" font-size="12" text-anchor="end">Asnières-sur-Seine</text></g><g><circle cx="46.830387397310815" cy="290" r="9.76580274715321"/><text transform="translate(46.830387397310815,304.7658027471532) rotate(-90)" alignment-baseline="middle" font-family="Helvetica, Arial, sans-serif" font-size="12" text-anchor="end">Henri Barbusse</text></g><g><circle cx="50.94867458066166" cy="290" r="9.76580274715321"/><text transform="translate(50.94867458066166,304.7658027471532) rotate(-90)" alignment-baseline="middle" font-family="Helvetica, Arial, sans-serif" font-size="12" text-anchor="end">Saint-Maurice</text></g><g><circle cx="55.066961764012504" cy="290" r="9.76580274715321"/><text transform="translate(55.066961764012504,304.7658027471532) rotate(-90)" alignment-baseline="middle" font-family="Helvetica, Arial, sans-serif" font-size="12" text-anchor="end">Eugène Delacroix</text></g><g><circle cx="79.41944620021013" cy="290" r="30"/><text transform="translate(79.41944620021013,325) rotate(-90)" alignment-baseline="middle" font-family="Helvetica, Arial, sans-serif" font-size="12" text-anchor="end">Paris</text></g><g><circle cx="103.77193063640777" cy="290" r="9.76580274715321"/><text transform="translate(103.77193063640777,304.7658027471532) rotate(-90)" alignment-baseline="middle" font-family="Helvetica, Arial, sans-serif" font-size="12" text-anchor="end">Georges Seurat</text></g><g><circle cx="107.89021781975862" cy="290" r="9.76580274715321"/><text transform="translate(107.89021781975862,304.7658027471532) rotate(-90)" alignment-baseline="middle" font-family="Helvetica, Arial, sans-serif" font-size="12" text-anchor="end">Edgar Degas</text></g><g><circle cx="112.00850500310946" cy="290" r="9.76580274715321"/><text transform="translate(112.00850500310946,304.7658027471532) rotate(-90)" alignment-baseline="middle" font-family="Helvetica, Arial, sans-serif" font-size="12" text-anchor="end">Jacques-Louis David</text></g><g><circle cx="116.1267921864603" cy="290" r="9.76580274715321"/><text transform="translate(116.1267921864603,304.7658027471532) rotate(-90)" alignment-baseline="middle" font-family="Helvetica, Arial, sans-serif" font-size="12" text-anchor="end">Prosper Mérimée</text></g><g><circle cx="120.24507936981115" cy="290" r="9.76580274715321"/><text transform="translate(120.24507936981115,304.7658027471532) rotate(-90)" alignment-baseline="middle" font-family="Helvetica, Arial, sans-serif" font-size="12" text-anchor="end">Édouard Joseph Dantan</text></g><g><circle cx="124.363366553162" cy="290" r="9.76580274715321"/><text transform="translate(124.363366553162,304.7658027471532) rotate(-90)" alignment-baseline="middle" font-family="Helvetica, Arial, sans-serif" font-size="12" text-anchor="end">Benjamin Lacombe</text></g><g><circle cx="128.48165373651284" cy="290" r="9.76580274715321"/><text transform="translate(128.48165373651284,304.7658027471532) rotate(-90)" alignment-baseline="middle" font-family="Helvetica, Arial, sans-serif" font-size="12" text-anchor="end">Michel Saloff Coste</text></g><g><circle cx="132.59994091986368" cy="290" r="9.76580274715321"/><text transform="translate(132.59994091986368,304.7658027471532) rotate(-90)" alignment-baseline="middle" font-family="Helvetica, Arial, sans-serif" font-size="12" text-anchor="end">Jean Arcelin</text></g><g><circle cx="136.71822810321453" cy="290" r="9.76580274715321"/><text transform="translate(136.71822810321453,304.7658027471532) rotate(-90)" alignment-baseline="middle" font-family="Helvetica, Arial, sans-serif" font-size="12" text-anchor="end">Antoine Pesne</text></g><g><circle cx="140.83651528656537" cy="290" r="9.76580274715321"/><text transform="translate(140.83651528656537,304.7658027471532) rotate(-90)" alignment-baseline="middle" font-family="Helvetica, Arial, sans-serif" font-size="12" text-anchor="end">Dora Maar</text></g><g><circle cx="144.95480246991622" cy="290" r="9.76580274715321"/><text transform="translate(144.95480246991622,304.7658027471532) rotate(-90)" alignment-baseline="middle" font-family="Helvetica, Arial, sans-serif" font-size="12" text-anchor="end">Maurice de Vlaminck</text></g><g><circle cx="149.07308965326706" cy="290" r="9.76580274715321"/><text transform="translate(149.07308965326706,304.7658027471532) rotate(-90)" alignment-baseline="middle" font-family="Helvetica, Arial, sans-serif" font-size="12" text-anchor="end">Jean-Jacques Bachelier</text></g><g><circle cx="153.1913768366179" cy="290" r="9.76580274715321"/><text transform="translate(153.1913768366179,304.7658027471532) rotate(-90)" alignment-baseline="middle" font-family="Helvetica, Arial, sans-serif" font-size="12" text-anchor="end">Ambroise Louis Garneray</text></g><g><circle cx="157.30966401996875" cy="290" r="9.76580274715321"/><text transform="translate(157.30966401996875,304.7658027471532) rotate(-90)" alignment-baseline="middle" font-family="Helvetica, Arial, sans-serif" font-size="12" text-anchor="end">Maisons-Laffitte</text></g><g><circle cx="161.4279512033196" cy="290" r="9.76580274715321"/><text transform="translate(161.4279512033196,304.7658027471532) rotate(-90)" alignment-baseline="middle" font-family="Helvetica, Arial, sans-serif" font-size="12" text-anchor="end">Jean Cocteau</text></g><g><circle cx="165.54623838667044" cy="290" r="9.76580274715321"/><text transform="translate(165.54623838667044,304.7658027471532) rotate(-90)" alignment-baseline="middle" font-family="Helvetica, Arial, sans-serif" font-size="12" text-anchor="end">Cormeilles-en-Parisis</text></g><g><circle cx="169.66452557002128" cy="290" r="9.76580274715321"/><text transform="translate(169.66452557002128,304.7658027471532) rotate(-90)" alignment-baseline="middle" font-family="Helvetica, Arial, sans-serif" font-size="12" text-anchor="end">Louis Daguerre</text></g><g><circle cx="173.78281275337213" cy="290" r="9.76580274715321"/><text transform="translate(173.78281275337213,304.7658027471532) rotate(-90)" alignment-baseline="middle" font-family="Helvetica, Arial, sans-serif" font-size="12" text-anchor="end">Strasbourg</text></g><g><circle cx="177.90109993672297" cy="290" r="9.76580274715321"/><text transform="translate(177.90109993672297,304.7658027471532) rotate(-90)" alignment-baseline="middle" font-family="Helvetica, Arial, sans-serif" font-size="12" text-anchor="end">Jean Arp</text></g><g><circle cx="182.01938712007382" cy="290" r="9.76580274715321"/><text transform="translate(182.01938712007382,304.7658027471532) rotate(-90)" alignment-baseline="middle" font-family="Helvetica, Arial, sans-serif" font-size="12" text-anchor="end">Brühl</text></g><g><circle cx="186.13767430342466" cy="290" r="9.76580274715321"/><text transform="translate(186.13767430342466,304.7658027471532) rotate(-90)" alignment-baseline="middle" font-family="Helvetica, Arial, sans-serif" font-size="12" text-anchor="end">Max Ernst</text></g><g><circle cx="190.2559614867755" cy="290" r="9.76580274715321"/><text transform="translate(190.2559614867755,304.7658027471532) rotate(-90)" alignment-baseline="middle" font-family="Helvetica, Arial, sans-serif" font-size="12" text-anchor="end">Quimper</text></g><g><circle cx="194.37424867012635" cy="290" r="9.76580274715321"/><text transform="translate(194.37424867012635,304.7658027471532) rotate(-90)" alignment-baseline="middle" font-family="Helvetica, Arial, sans-serif" font-size="12" text-anchor="end">Max Jacob</text></g><g><circle cx="198.4925358534772" cy="290" r="9.76580274715321"/><text transform="translate(198.4925358534772,304.7658027471532) rotate(-90)" alignment-baseline="middle" font-family="Helvetica, Arial, sans-serif" font-size="12" text-anchor="end">Ostend</text></g><g><circle cx="202.61082303682804" cy="290" r="9.76580274715321"/><text transform="translate(202.61082303682804,304.7658027471532) rotate(-90)" alignment-baseline="middle" font-family="Helvetica, Arial, sans-serif" font-size="12" text-anchor="end">James Ensor</text></g><g><circle cx="206.72911022017888" cy="290" r="9.76580274715321"/><text transform="translate(206.72911022017888,304.7658027471532) rotate(-90)" alignment-baseline="middle" font-family="Helvetica, Arial, sans-serif" font-size="12" text-anchor="end">Huy</text></g><g><circle cx="210.84739740352973" cy="290" r="9.76580274715321"/><text transform="translate(210.84739740352973,304.7658027471532) rotate(-90)" alignment-baseline="middle" font-family="Helvetica, Arial, sans-serif" font-size="12" text-anchor="end">Paul Delvaux</text></g><g><circle cx="214.96568458688057" cy="290" r="9.76580274715321"/><text transform="translate(214.96568458688057,304.7658027471532) rotate(-90)" alignment-baseline="middle" font-family="Helvetica, Arial, sans-serif" font-size="12" text-anchor="end">Delfshaven</text></g><g><circle cx="219.08397177023141" cy="290" r="9.76580274715321"/><text transform="translate(219.08397177023141,304.7658027471532) rotate(-90)" alignment-baseline="middle" font-family="Helvetica, Arial, sans-serif" font-size="12" text-anchor="end">Kees van Dongen</text></g><g><circle cx="232.80131904891823" cy="290" r="19.364862842489188"/><text transform="translate(232.80131904891823,314.3648628424892) rotate(-90)" alignment-baseline="middle" font-family="Helvetica, Arial, sans-serif" font-size="12" text-anchor="end">Antwerp</text></g><g><circle cx="246.51866632760505" cy="290" r="9.76580274715321"/><text transform="translate(246.51866632760505,304.7658027471532) rotate(-90)" alignment-baseline="middle" font-family="Helvetica, Arial, sans-serif" font-size="12" text-anchor="end">Charles Verlat</text></g><g><circle cx="250.6369535109559" cy="290" r="9.76580274715321"/><text transform="translate(250.6369535109559,304.7658027471532) rotate(-90)" alignment-baseline="middle" font-family="Helvetica, Arial, sans-serif" font-size="12" text-anchor="end">Égide Charles Gustave Wappers</text></g><g><circle cx="254.75524069430674" cy="290" r="9.76580274715321"/><text transform="translate(254.75524069430674,304.7658027471532) rotate(-90)" alignment-baseline="middle" font-family="Helvetica, Arial, sans-serif" font-size="12" text-anchor="end">Willy Vandersteen</text></g><g><circle cx="258.8735278776576" cy="290" r="9.76580274715321"/><text transform="translate(258.8735278776576,304.7658027471532) rotate(-90)" alignment-baseline="middle" font-family="Helvetica, Arial, sans-serif" font-size="12" text-anchor="end">Michel Seuphor</text></g><g><circle cx="262.9918150610084" cy="290" r="9.76580274715321"/><text transform="translate(262.9918150610084,304.7658027471532) rotate(-90)" alignment-baseline="middle" font-family="Helvetica, Arial, sans-serif" font-size="12" text-anchor="end">Nicaise de Keyser</text></g><g><circle cx="267.11010224435927" cy="290" r="9.76580274715321"/><text transform="translate(267.11010224435927,304.7658027471532) rotate(-90)" alignment-baseline="middle" font-family="Helvetica, Arial, sans-serif" font-size="12" text-anchor="end">Vitebsk</text></g><g><circle cx="271.2283894277101" cy="290" r="9.76580274715321"/><text transform="translate(271.2283894277101,304.7658027471532) rotate(-90)" alignment-baseline="middle" font-family="Helvetica, Arial, sans-serif" font-size="12" text-anchor="end">Marc Chagall</text></g><g><circle cx="281.0316387835351" cy="290" r="15.45076491962732"/><text transform="translate(281.0316387835351,310.4507649196273) rotate(-90)" alignment-baseline="middle" font-family="Helvetica, Arial, sans-serif" font-size="12" text-anchor="end">Lausanne</text></g><g><circle cx="290.83488813936003" cy="290" r="9.76580274715321"/><text transform="translate(290.83488813936003,304.7658027471532) rotate(-90)" alignment-baseline="middle" font-family="Helvetica, Arial, sans-serif" font-size="12" text-anchor="end">Félix Vallotton</text></g><g><circle cx="294.9531753227109" cy="290" r="9.76580274715321"/><text transform="translate(294.9531753227109,304.7658027471532) rotate(-90)" alignment-baseline="middle" font-family="Helvetica, Arial, sans-serif" font-size="12" text-anchor="end">Théophile Steinlen</text></g><g><circle cx="299.0714625060617" cy="290" r="9.76580274715321"/><text transform="translate(299.0714625060617,304.7658027471532) rotate(-90)" alignment-baseline="middle" font-family="Helvetica, Arial, sans-serif" font-size="12" text-anchor="end">Eugène Grasset</text></g><g><circle cx="303.18974968941257" cy="290" r="9.76580274715321"/><text transform="translate(303.18974968941257,304.7658027471532) rotate(-90)" alignment-baseline="middle" font-family="Helvetica, Arial, sans-serif" font-size="12" text-anchor="end">Granville</text></g><g><circle cx="307.3080368727634" cy="290" r="9.76580274715321"/><text transform="translate(307.3080368727634,304.7658027471532) rotate(-90)" alignment-baseline="middle" font-family="Helvetica, Arial, sans-serif" font-size="12" text-anchor="end">Maurice Denis</text></g><g><circle cx="311.42632405611425" cy="290" r="9.76580274715321"/><text transform="translate(311.42632405611425,304.7658027471532) rotate(-90)" alignment-baseline="middle" font-family="Helvetica, Arial, sans-serif" font-size="12" text-anchor="end">Palace of the Marquess of Assche</text></g><g><circle cx="315.5446112394651" cy="290" r="9.76580274715321"/><text transform="translate(315.5446112394651,304.7658027471532) rotate(-90)" alignment-baseline="middle" font-family="Helvetica, Arial, sans-serif" font-size="12" text-anchor="end">Prince Charles, Count of Flanders</text></g><g><circle cx="322.87959924340106" cy="290" r="12.982503567738306"/><text transform="translate(322.87959924340106,307.9825035677383) rotate(-90)" alignment-baseline="middle" font-family="Helvetica, Arial, sans-serif" font-size="12" text-anchor="end">Saint-Josse-ten-Noode</text></g><g><circle cx="330.21458724733696" cy="290" r="9.76580274715321"/><text transform="translate(330.21458724733696,304.7658027471532) rotate(-90)" alignment-baseline="middle" font-family="Helvetica, Arial, sans-serif" font-size="12" text-anchor="end">Henry de Groux</text></g><g><circle cx="334.3328744306878" cy="290" r="9.76580274715321"/><text transform="translate(334.3328744306878,304.7658027471532) rotate(-90)" alignment-baseline="middle" font-family="Helvetica, Arial, sans-serif" font-size="12" text-anchor="end">Louis Van Lint</text></g><g><circle cx="338.45116161403865" cy="290" r="9.76580274715321"/><text transform="translate(338.45116161403865,304.7658027471532) rotate(-90)" alignment-baseline="middle" font-family="Helvetica, Arial, sans-serif" font-size="12" text-anchor="end">Petrópolis</text></g><g><circle cx="342.5694487973895" cy="290" r="9.76580274715321"/><text transform="translate(342.5694487973895,304.7658027471532) rotate(-90)" alignment-baseline="middle" font-family="Helvetica, Arial, sans-serif" font-size="12" text-anchor="end">Duchess Diane, Duchess of Württemberg</text></g><g><circle cx="346.68773598074034" cy="290" r="9.76580274715321"/><text transform="translate(346.68773598074034,304.7658027471532) rotate(-90)" alignment-baseline="middle" font-family="Helvetica, Arial, sans-serif" font-size="12" text-anchor="end">Lens</text></g><g><circle cx="350.8060231640912" cy="290" r="9.76580274715321"/><text transform="translate(350.8060231640912,304.7658027471532) rotate(-90)" alignment-baseline="middle" font-family="Helvetica, Arial, sans-serif" font-size="12" text-anchor="end">Paul Cuvelier</text></g><g><circle cx="354.92431034744203" cy="290" r="9.76580274715321"/><text transform="translate(354.92431034744203,304.7658027471532) rotate(-90)" alignment-baseline="middle" font-family="Helvetica, Arial, sans-serif" font-size="12" text-anchor="end">3rd arrondissement of Marseille</text></g><g><circle cx="359.0425975307929" cy="290" r="9.76580274715321"/><text transform="translate(359.0425975307929,304.7658027471532) rotate(-90)" alignment-baseline="middle" font-family="Helvetica, Arial, sans-serif" font-size="12" text-anchor="end">Gilles Del Pappas</text></g><g><circle cx="363.1608847141437" cy="290" r="9.76580274715321"/><text transform="translate(363.1608847141437,304.7658027471532) rotate(-90)" alignment-baseline="middle" font-family="Helvetica, Arial, sans-serif" font-size="12" text-anchor="end">Bernwiller</text></g><g><circle cx="367.27917189749456" cy="290" r="9.76580274715321"/><text transform="translate(367.27917189749456,304.7658027471532) rotate(-90)" alignment-baseline="middle" font-family="Helvetica, Arial, sans-serif" font-size="12" text-anchor="end">Jean-Jacques Henner</text></g><g><circle cx="374.6141599014305" cy="290" r="12.982503567738306"/><text transform="translate(374.6141599014305,307.9825035677383) rotate(-90)" alignment-baseline="middle" font-family="Helvetica, Arial, sans-serif" font-size="12" text-anchor="end">Ghent</text></g><g><circle cx="381.94914790536643" cy="290" r="9.76580274715321"/><text transform="translate(381.94914790536643,304.7658027471532) rotate(-90)" alignment-baseline="middle" font-family="Helvetica, Arial, sans-serif" font-size="12" text-anchor="end">Théo van Rysselberghe</text></g><g><circle cx="386.0674350887173" cy="290" r="9.76580274715321"/><text transform="translate(386.0674350887173,304.7658027471532) rotate(-90)" alignment-baseline="middle" font-family="Helvetica, Arial, sans-serif" font-size="12" text-anchor="end">Georges Minne</text></g><g><circle cx="390.1857222720681" cy="290" r="9.76580274715321"/><text transform="translate(390.1857222720681,304.7658027471532) rotate(-90)" alignment-baseline="middle" font-family="Helvetica, Arial, sans-serif" font-size="12" text-anchor="end">Mons</text></g><g><circle cx="394.30400945541896" cy="290" r="9.76580274715321"/><text transform="translate(394.30400945541896,304.7658027471532) rotate(-90)" alignment-baseline="middle" font-family="Helvetica, Arial, sans-serif" font-size="12" text-anchor="end">Jacques Calonne</text></g><g><circle cx="398.4222966387698" cy="290" r="9.76580274715321"/><text transform="translate(398.4222966387698,304.7658027471532) rotate(-90)" alignment-baseline="middle" font-family="Helvetica, Arial, sans-serif" font-size="12" text-anchor="end">Chens-sur-Léman</text></g><g><circle cx="402.54058382212065" cy="290" r="9.76580274715321"/><text transform="translate(402.54058382212065,304.7658027471532) rotate(-90)" alignment-baseline="middle" font-family="Helvetica, Arial, sans-serif" font-size="12" text-anchor="end">Henri Dufaux</text></g><g><circle cx="409.8755718260566" cy="290" r="12.982503567738306"/><text transform="translate(409.8755718260566,307.9825035677383) rotate(-90)" alignment-baseline="middle" font-family="Helvetica, Arial, sans-serif" font-size="12" text-anchor="end">2nd arrondissement of Lyon</text></g><g><circle cx="417.2105598299925" cy="290" r="9.76580274715321"/><text transform="translate(417.2105598299925,304.7658027471532) rotate(-90)" alignment-baseline="middle" font-family="Helvetica, Arial, sans-serif" font-size="12" text-anchor="end">Joséphin Peladan</text></g><g><circle cx="421.32884701334336" cy="290" r="9.76580274715321"/><text transform="translate(421.32884701334336,304.7658027471532) rotate(-90)" alignment-baseline="middle" font-family="Helvetica, Arial, sans-serif" font-size="12" text-anchor="end">Valentine de Saint-Point</text></g><g><circle cx="425.4471341966942" cy="290" r="9.76580274715321"/><text transform="translate(425.4471341966942,304.7658027471532) rotate(-90)" alignment-baseline="middle" font-family="Helvetica, Arial, sans-serif" font-size="12" text-anchor="end">Sint-Eloois-Vijve</text></g><g><circle cx="429.56542138004505" cy="290" r="9.76580274715321"/><text transform="translate(429.56542138004505,304.7658027471532) rotate(-90)" alignment-baseline="middle" font-family="Helvetica, Arial, sans-serif" font-size="12" text-anchor="end">Emile Claus</text></g><g><circle cx="433.6837085633959" cy="290" r="9.76580274715321"/><text transform="translate(433.6837085633959,304.7658027471532) rotate(-90)" alignment-baseline="middle" font-family="Helvetica, Arial, sans-serif" font-size="12" text-anchor="end">Gedinne</text></g><g><circle cx="437.80199574674674" cy="290" r="9.76580274715321"/><text transform="translate(437.80199574674674,304.7658027471532) rotate(-90)" alignment-baseline="middle" font-family="Helvetica, Arial, sans-serif" font-size="12" text-anchor="end">Jijé</text></g><g><circle cx="445.1369837506827" cy="290" r="12.982503567738306"/><text transform="translate(445.1369837506827,307.9825035677383) rotate(-90)" alignment-baseline="middle" font-family="Helvetica, Arial, sans-serif" font-size="12" text-anchor="end">City of Brussels</text></g><g><circle cx="452.4719717546186" cy="290" r="9.76580274715321"/><text transform="translate(452.4719717546186,304.7658027471532) rotate(-90)" alignment-baseline="middle" font-family="Helvetica, Arial, sans-serif" font-size="12" text-anchor="end">Alfred Stevens</text></g><g><circle cx="456.59025893796945" cy="290" r="9.76580274715321"/><text transform="translate(456.59025893796945,304.7658027471532) rotate(-90)" alignment-baseline="middle" font-family="Helvetica, Arial, sans-serif" font-size="12" text-anchor="end">Brussels metropolitan area</text></g><g><circle cx="460.7085461213203" cy="290" r="9.76580274715321"/><text transform="translate(460.7085461213203,304.7658027471532) rotate(-90)" alignment-baseline="middle" font-family="Helvetica, Arial, sans-serif" font-size="12" text-anchor="end">Emile Wauters</text></g><g><circle cx="464.82683330467114" cy="290" r="9.76580274715321"/><text transform="translate(464.82683330467114,304.7658027471532) rotate(-90)" alignment-baseline="middle" font-family="Helvetica, Arial, sans-serif" font-size="12" text-anchor="end">Saint-Vaast</text></g><g><circle cx="468.945120488022" cy="290" r="9.76580274715321"/><text transform="translate(468.945120488022,304.7658027471532) rotate(-90)" alignment-baseline="middle" font-family="Helvetica, Arial, sans-serif" font-size="12" text-anchor="end">Anna Boch</text></g><g><circle cx="473.06340767137283" cy="290" r="9.76580274715321"/><text transform="translate(473.06340767137283,304.7658027471532) rotate(-90)" alignment-baseline="middle" font-family="Helvetica, Arial, sans-serif" font-size="12" text-anchor="end">Chalon-sur-Saône</text></g><g><circle cx="477.1816948547237" cy="290" r="9.76580274715321"/><text transform="translate(477.1816948547237,304.7658027471532) rotate(-90)" alignment-baseline="middle" font-family="Helvetica, Arial, sans-serif" font-size="12" text-anchor="end">Dominique Vivant</text></g><g><circle cx="481.2999820380745" cy="290" r="9.76580274715321"/><text transform="translate(481.2999820380745,304.7658027471532) rotate(-90)" alignment-baseline="middle" font-family="Helvetica, Arial, sans-serif" font-size="12" text-anchor="end">La Rochelle</text></g><g><circle cx="485.41826922142536" cy="290" r="9.76580274715321"/><text transform="translate(485.41826922142536,304.7658027471532) rotate(-90)" alignment-baseline="middle" font-family="Helvetica, Arial, sans-serif" font-size="12" text-anchor="end">William-Adolphe Bouguereau</text></g><g><circle cx="492.7532572253613" cy="290" r="12.982503567738306"/><text transform="translate(492.7532572253613,307.9825035677383) rotate(-90)" alignment-baseline="middle" font-family="Helvetica, Arial, sans-serif" font-size="12" text-anchor="end">Liège</text></g><g><circle cx="500.08824522929723" cy="290" r="9.76580274715321"/><text transform="translate(500.08824522929723,304.7658027471532) rotate(-90)" alignment-baseline="middle" font-family="Helvetica, Arial, sans-serif" font-size="12" text-anchor="end">Armand Rassenfosse</text></g><g><circle cx="504.2065324126481" cy="290" r="9.76580274715321"/><text transform="translate(504.2065324126481,304.7658027471532) rotate(-90)" alignment-baseline="middle" font-family="Helvetica, Arial, sans-serif" font-size="12" text-anchor="end">Florent Willems</text></g><g><circle cx="508.3248195959989" cy="290" r="9.76580274715321"/><text transform="translate(508.3248195959989,304.7658027471532) rotate(-90)" alignment-baseline="middle" font-family="Helvetica, Arial, sans-serif" font-size="12" text-anchor="end">Tournai</text></g><g><circle cx="512.4431067793498" cy="290" r="9.76580274715321"/><text transform="translate(512.4431067793498,304.7658027471532) rotate(-90)" alignment-baseline="middle" font-family="Helvetica, Arial, sans-serif" font-size="12" text-anchor="end">Louis Gallait</text></g><g><circle cx="519.7780947832857" cy="290" r="12.982503567738306"/><text transform="translate(519.7780947832857,307.9825035677383) rotate(-90)" alignment-baseline="middle" font-family="Helvetica, Arial, sans-serif" font-size="12" text-anchor="end">Neuilly-sur-Seine</text></g><g><circle cx="527.1130827872216" cy="290" r="9.76580274715321"/><text transform="translate(527.1130827872216,304.7658027471532) rotate(-90)" alignment-baseline="middle" font-family="Helvetica, Arial, sans-serif" font-size="12" text-anchor="end">Françoise Gilot</text></g><g><circle cx="531.2313699705725" cy="290" r="9.76580274715321"/><text transform="translate(531.2313699705725,304.7658027471532) rotate(-90)" alignment-baseline="middle" font-family="Helvetica, Arial, sans-serif" font-size="12" text-anchor="end">Jacques de Loustal</text></g><g><circle cx="535.3496571539233" cy="290" r="9.76580274715321"/><text transform="translate(535.3496571539233,304.7658027471532) rotate(-90)" alignment-baseline="middle" font-family="Helvetica, Arial, sans-serif" font-size="12" text-anchor="end">Hengelo</text></g><g><circle cx="539.4679443372742" cy="290" r="9.76580274715321"/><text transform="translate(539.4679443372742,304.7658027471532) rotate(-90)" alignment-baseline="middle" font-family="Helvetica, Arial, sans-serif" font-size="12" text-anchor="end">Jacqueline de Jong</text></g><g><circle cx="543.586231520625" cy="290" r="9.76580274715321"/><text transform="translate(543.586231520625,304.7658027471532) rotate(-90)" alignment-baseline="middle" font-family="Helvetica, Arial, sans-serif" font-size="12" text-anchor="end">Péronne</text></g><g><circle cx="547.7045187039759" cy="290" r="9.76580274715321"/><text transform="translate(547.7045187039759,304.7658027471532) rotate(-90)" alignment-baseline="middle" font-family="Helvetica, Arial, sans-serif" font-size="12" text-anchor="end">Pierre Mac Orlan</text></g><g><circle cx="551.8228058873267" cy="290" r="9.76580274715321"/><text transform="translate(551.8228058873267,304.7658027471532) rotate(-90)" alignment-baseline="middle" font-family="Helvetica, Arial, sans-serif" font-size="12" text-anchor="end">Château de Bonneville</text></g><g><circle cx="555.9410930706775" cy="290" r="9.76580274715321"/><text transform="translate(555.9410930706775,304.7658027471532) rotate(-90)" alignment-baseline="middle" font-family="Helvetica, Arial, sans-serif" font-size="12" text-anchor="end">Jean de La Varende</text></g><g><circle cx="560.0593802540284" cy="290" r="9.76580274715321"/><text transform="translate(560.0593802540284,304.7658027471532) rotate(-90)" alignment-baseline="middle" font-family="Helvetica, Arial, sans-serif" font-size="12" text-anchor="end">Etterbeek</text></g><g><circle cx="564.1776674373792" cy="290" r="9.76580274715321"/><text transform="translate(564.1776674373792,304.7658027471532) rotate(-90)" alignment-baseline="middle" font-family="Helvetica, Arial, sans-serif" font-size="12" text-anchor="end">Constantin Meunier</text></g><g><circle cx="568.2959546207301" cy="290" r="9.76580274715321"/><text transform="translate(568.2959546207301,304.7658027471532) rotate(-90)" alignment-baseline="middle" font-family="Helvetica, Arial, sans-serif" font-size="12" text-anchor="end">Geneva</text></g><g><circle cx="572.4142418040809" cy="290" r="9.76580274715321"/><text transform="translate(572.4142418040809,304.7658027471532) rotate(-90)" alignment-baseline="middle" font-family="Helvetica, Arial, sans-serif" font-size="12" text-anchor="end">Jean Petitot</text></g><g><circle cx="576.5325289874318" cy="290" r="9.76580274715321"/><text transform="translate(576.5325289874318,304.7658027471532) rotate(-90)" alignment-baseline="middle" font-family="Helvetica, Arial, sans-serif" font-size="12" text-anchor="end">Blankenberge</text></g><g><circle cx="580.6508161707826" cy="290" r="9.76580274715321"/><text transform="translate(580.6508161707826,304.7658027471532) rotate(-90)" alignment-baseline="middle" font-family="Helvetica, Arial, sans-serif" font-size="12" text-anchor="end">Frans Masereel</text></g><g><circle cx="584.7691033541334" cy="290" r="9.76580274715321"/><text transform="translate(584.7691033541334,304.7658027471532) rotate(-90)" alignment-baseline="middle" font-family="Helvetica, Arial, sans-serif" font-size="12" text-anchor="end">Dendermonde</text></g><g><circle cx="588.8873905374843" cy="290" r="9.76580274715321"/><text transform="translate(588.8873905374843,304.7658027471532) rotate(-90)" alignment-baseline="middle" font-family="Helvetica, Arial, sans-serif" font-size="12" text-anchor="end">Fernand Khnopff</text></g><g><circle cx="593.0056777208351" cy="290" r="9.76580274715321"/><text transform="translate(593.0056777208351,304.7658027471532) rotate(-90)" alignment-baseline="middle" font-family="Helvetica, Arial, sans-serif" font-size="12" text-anchor="end">Zoeterwoude-Dorp</text></g><g><circle cx="597.123964904186" cy="290" r="9.76580274715321"/><text transform="translate(597.123964904186,304.7658027471532) rotate(-90)" alignment-baseline="middle" font-family="Helvetica, Arial, sans-serif" font-size="12" text-anchor="end">Bram van Velde</text></g><g><circle cx="601.2422520875368" cy="290" r="9.76580274715321"/><text transform="translate(601.2422520875368,304.7658027471532) rotate(-90)" alignment-baseline="middle" font-family="Helvetica, Arial, sans-serif" font-size="12" text-anchor="end">Beirut</text></g><g><circle cx="605.3605392708877" cy="290" r="9.76580274715321"/><text transform="translate(605.3605392708877,304.7658027471532) rotate(-90)" alignment-baseline="middle" font-family="Helvetica, Arial, sans-serif" font-size="12" text-anchor="end">Alain Tasso</text></g><g><circle cx="609.4788264542385" cy="290" r="9.76580274715321"/><text transform="translate(609.4788264542385,304.7658027471532) rotate(-90)" alignment-baseline="middle" font-family="Helvetica, Arial, sans-serif" font-size="12" text-anchor="end">Molenbeek</text></g><g><circle cx="613.5971136375894" cy="290" r="9.76580274715321"/><text transform="translate(613.5971136375894,304.7658027471532) rotate(-90)" alignment-baseline="middle" font-family="Helvetica, Arial, sans-serif" font-size="12" text-anchor="end">Eugène Laermans</text></g><g><circle cx="617.7154008209402" cy="290" r="9.76580274715321"/><text transform="translate(617.7154008209402,304.7658027471532) rotate(-90)" alignment-baseline="middle" font-family="Helvetica, Arial, sans-serif" font-size="12" text-anchor="end">1st arrondissement of Paris</text></g><g><circle cx="621.833688004291" cy="290" r="9.76580274715321"/><text transform="translate(621.833688004291,304.7658027471532) rotate(-90)" alignment-baseline="middle" font-family="Helvetica, Arial, sans-serif" font-size="12" text-anchor="end">Léon-Paul Fargue</text></g><g><circle cx="625.9519751876419" cy="290" r="9.76580274715321"/><text transform="translate(625.9519751876419,304.7658027471532) rotate(-90)" alignment-baseline="middle" font-family="Helvetica, Arial, sans-serif" font-size="12" text-anchor="end">Martinique</text></g><g><circle cx="630.0702623709927" cy="290" r="9.76580274715321"/><text transform="translate(630.0702623709927,304.7658027471532) rotate(-90)" alignment-baseline="middle" font-family="Helvetica, Arial, sans-serif" font-size="12" text-anchor="end">Roland Brival</text></g><g><circle cx="637.4052503749286" cy="290" r="12.982503567738306"/><text transform="translate(637.4052503749286,307.9825035677383) rotate(-90)" alignment-baseline="middle" font-family="Helvetica, Arial, sans-serif" font-size="12" text-anchor="end">Lille</text></g><g><circle cx="644.7402383788647" cy="290" r="9.76580274715321"/><text transform="translate(644.7402383788647,304.7658027471532) rotate(-90)" alignment-baseline="middle" font-family="Helvetica, Arial, sans-serif" font-size="12" text-anchor="end">Bernard Vaillant</text></g><g><circle cx="648.8585255622155" cy="290" r="9.76580274715321"/><text transform="translate(648.8585255622155,304.7658027471532) rotate(-90)" alignment-baseline="middle" font-family="Helvetica, Arial, sans-serif" font-size="12" text-anchor="end">Émile Bernard</text></g><g><circle cx="656.1935135661514" cy="290" r="12.982503567738306"/><text transform="translate(656.1935135661514,307.9825035677383) rotate(-90)" alignment-baseline="middle" font-family="Helvetica, Arial, sans-serif" font-size="12" text-anchor="end">Marseille</text></g><g><circle cx="663.5285015700874" cy="290" r="9.76580274715321"/><text transform="translate(663.5285015700874,304.7658027471532) rotate(-90)" alignment-baseline="middle" font-family="Helvetica, Arial, sans-serif" font-size="12" text-anchor="end">Marc-Édouard Nabe</text></g><g><circle cx="667.6467887534383" cy="290" r="9.76580274715321"/><text transform="translate(667.6467887534383,304.7658027471532) rotate(-90)" alignment-baseline="middle" font-family="Helvetica, Arial, sans-serif" font-size="12" text-anchor="end">Antonin Artaud</text></g><g><circle cx="671.7650759367891" cy="290" r="9.76580274715321"/><text transform="translate(671.7650759367891,304.7658027471532) rotate(-90)" alignment-baseline="middle" font-family="Helvetica, Arial, sans-serif" font-size="12" text-anchor="end">Charleroi</text></g><g><circle cx="675.88336312014" cy="290" r="9.76580274715321"/><text transform="translate(675.88336312014,304.7658027471532) rotate(-90)" alignment-baseline="middle" font-family="Helvetica, Arial, sans-serif" font-size="12" text-anchor="end">François-Joseph Navez</text></g><g><circle cx="680.0016503034908" cy="290" r="9.76580274715321"/><text transform="translate(680.0016503034908,304.7658027471532) rotate(-90)" alignment-baseline="middle" font-family="Helvetica, Arial, sans-serif" font-size="12" text-anchor="end">Montpellier</text></g><g><circle cx="684.1199374868416" cy="290" r="9.76580274715321"/><text transform="translate(684.1199374868416,304.7658027471532) rotate(-90)" alignment-baseline="middle" font-family="Helvetica, Arial, sans-serif" font-size="12" text-anchor="end">Joseph-Marie Vien</text></g><g><circle cx="688.2382246701925" cy="290" r="9.76580274715321"/><text transform="translate(688.2382246701925,304.7658027471532) rotate(-90)" alignment-baseline="middle" font-family="Helvetica, Arial, sans-serif" font-size="12" text-anchor="end">Dijon</text></g><g><circle cx="692.3565118535433" cy="290" r="9.76580274715321"/><text transform="translate(692.3565118535433,304.7658027471532) rotate(-90)" alignment-baseline="middle" font-family="Helvetica, Arial, sans-serif" font-size="12" text-anchor="end">Virginie Ancelot</text></g><g><circle cx="699.6914998574792" cy="290" r="12.982503567738306"/><text transform="translate(699.6914998574792,307.9825035677383) rotate(-90)" alignment-baseline="middle" font-family="Helvetica, Arial, sans-serif" font-size="12" text-anchor="end">Nantes</text></g><g><circle cx="707.0264878614153" cy="290" r="9.76580274715321"/><text transform="translate(707.0264878614153,304.7658027471532) rotate(-90)" alignment-baseline="middle" font-family="Helvetica, Arial, sans-serif" font-size="12" text-anchor="end">Claude Cahun</text></g><g><circle cx="711.1447750447661" cy="290" r="9.76580274715321"/><text transform="translate(711.1447750447661,304.7658027471532) rotate(-90)" alignment-baseline="middle" font-family="Helvetica, Arial, sans-serif" font-size="12" text-anchor="end">Jean Metzinger</text></g><g><circle cx="715.263062228117" cy="290" r="9.76580274715321"/><text transform="translate(715.263062228117,304.7658027471532) rotate(-90)" alignment-baseline="middle" font-family="Helvetica, Arial, sans-serif" font-size="12" text-anchor="end">Meaux</text></g><g><circle cx="719.3813494114678" cy="290" r="9.76580274715321"/><text transform="translate(719.3813494114678,304.7658027471532) rotate(-90)" alignment-baseline="middle" font-family="Helvetica, Arial, sans-serif" font-size="12" text-anchor="end">Jeanne Hébuterne</text></g><g><circle cx="723.4996365948186" cy="290" r="9.76580274715321"/><text transform="translate(723.4996365948186,304.7658027471532) rotate(-90)" alignment-baseline="middle" font-family="Helvetica, Arial, sans-serif" font-size="12" text-anchor="end">Courrières</text></g><g><circle cx="727.6179237781695" cy="290" r="9.76580274715321"/><text transform="translate(727.6179237781695,304.7658027471532) rotate(-90)" alignment-baseline="middle" font-family="Helvetica, Arial, sans-serif" font-size="12" text-anchor="end">Jules Breton</text></g><g><circle cx="731.7362109615203" cy="290" r="9.76580274715321"/><text transform="translate(731.7362109615203,304.7658027471532) rotate(-90)" alignment-baseline="middle" font-family="Helvetica, Arial, sans-serif" font-size="12" text-anchor="end">Montauban</text></g><g><circle cx="735.8544981448712" cy="290" r="9.76580274715321"/><text transform="translate(735.8544981448712,304.7658027471532) rotate(-90)" alignment-baseline="middle" font-family="Helvetica, Arial, sans-serif" font-size="12" text-anchor="end">Antoine Bourdelle</text></g><g><circle cx="739.972785328222" cy="290" r="9.76580274715321"/><text transform="translate(739.972785328222,304.7658027471532) rotate(-90)" alignment-baseline="middle" font-family="Helvetica, Arial, sans-serif" font-size="12" text-anchor="end">Avignon</text></g><g><circle cx="744.0910725115729" cy="290" r="9.76580274715321"/><text transform="translate(744.0910725115729,304.7658027471532) rotate(-90)" alignment-baseline="middle" font-family="Helvetica, Arial, sans-serif" font-size="12" text-anchor="end">Joseph Vernet</text></g><g><circle cx="751.4260605155088" cy="290" r="12.982503567738306"/><text transform="translate(751.4260605155088,307.9825035677383) rotate(-90)" alignment-baseline="middle" font-family="Helvetica, Arial, sans-serif" font-size="12" text-anchor="end">Pierre Alechinsky</text></g><g><circle cx="758.7610485194448" cy="290" r="9.76580274715321"/><text transform="translate(758.7610485194448,304.7658027471532) rotate(-90)" alignment-baseline="middle" font-family="Helvetica, Arial, sans-serif" font-size="12" text-anchor="end">Schaerbeek</text></g><g><circle cx="762.8793357027956" cy="290" r="9.76580274715321"/><text transform="translate(762.8793357027956,304.7658027471532) rotate(-90)" alignment-baseline="middle" font-family="Helvetica, Arial, sans-serif" font-size="12" text-anchor="end">16th arrondissement of Paris</text></g><g><circle cx="766.9976228861465" cy="290" r="9.76580274715321"/><text transform="translate(766.9976228861465,304.7658027471532) rotate(-90)" alignment-baseline="middle" font-family="Helvetica, Arial, sans-serif" font-size="12" text-anchor="end">Michael Lonsdale</text></g><g><circle cx="771.1159100694973" cy="290" r="9.76580274715321"/><text transform="translate(771.1159100694973,304.7658027471532) rotate(-90)" alignment-baseline="middle" font-family="Helvetica, Arial, sans-serif" font-size="12" text-anchor="end">Maubeuge</text></g><g><circle cx="775.2341972528482" cy="290" r="9.76580274715321"/><text transform="translate(775.2341972528482,304.7658027471532) rotate(-90)" alignment-baseline="middle" font-family="Helvetica, Arial, sans-serif" font-size="12" text-anchor="end">Jan Gossaert</text></g></g></g></svg>